<?xml version="1.0" encoding="UTF-8"?>
<svg id="Layer_1" xmlns="http://www.w3.org/2000/svg" version="1.1" viewBox="0 0 808 285">
  <!-- Generator: Adobe Illustrator 29.0.1, SVG Export Plug-In . SVG Version: 2.1.0 Build 192)  -->
  <defs>
    <style>
      .st0 {
        fill: #fff;
      }

      .st1 {
        fill: #cfedff;
      }
    </style>
  </defs>
  <g>
    <path class="st0" d="M256.22,111.06h6.12v1.14h-4.74v6.33c2.21-.02,3.86-.1,5.73-.45l.18,1.2c-2.05.35-3.81.42-6.24.42h-1.05v-8.64ZM265.88,114.87h2.1v1.17h-2.1v6.9h-1.38v-13.14h1.38v5.07Z"/>
    <path class="st0" d="M272,110.58c2.01-.02,3.5,1.26,3.51,3.09-.01,1.85-1.5,3.12-3.51,3.12s-3.5-1.27-3.48-3.12c-.02-1.83,1.47-3.1,3.48-3.09ZM272,115.62c1.23,0,2.14-.77,2.16-1.95-.02-1.14-.93-1.94-2.16-1.92-1.23-.02-2.13.78-2.13,1.92s.9,1.95,2.13,1.95ZM274.4,117.9c2.67.02,4.35.93,4.35,2.52s-1.68,2.49-4.35,2.49-4.41-.93-4.41-2.49,1.69-2.5,4.41-2.52ZM274.4,121.79c1.88-.02,2.99-.5,3-1.38-.01-.9-1.12-1.4-3-1.41-1.9.02-3.03.51-3.03,1.41s1.12,1.36,3.03,1.38ZM280.49,112.8h-1.86v1.68h1.86v1.14h-1.86v1.92h-1.38v-7.74h1.38v1.86h1.86v1.14Z"/>
    <path class="st0" d="M288.8,115.89l-.75,1.08c-1.44-.51-2.5-1.53-3.08-2.85-.57,1.51-1.72,2.68-3.31,3.27l-.72-1.14c2.08-.71,3.3-2.46,3.3-4.41v-1.32h1.41v1.26c-.03,1.81,1.17,3.46,3.15,4.11ZM287.51,117.9c2.76.02,4.44.93,4.44,2.52s-1.68,2.49-4.44,2.49-4.44-.9-4.44-2.49,1.69-2.5,4.44-2.52ZM287.51,121.79c1.92,0,3.06-.51,3.06-1.38s-1.14-1.43-3.06-1.41c-1.92-.02-3.06.51-3.06,1.41s1.14,1.38,3.06,1.38ZM287.75,112.47h2.79v-2.67h1.38v7.74h-1.38v-3.93h-2.79v-1.14Z"/>
  </g>
  <g>
    <path class="st0" d="M314.39,263.53h-3.75v1.53h5.28v1.14h-11.97v-1.14h5.28v-1.53h-3.75v-4.5h8.91v4.5ZM305.27,267.44h9.18v4.17h-1.41v-3.06h-7.77v-1.11ZM313.01,262.43v-2.28h-6.18v2.28h6.18Z"/>
    <path class="st0" d="M328.64,270.07h-12.03v-1.14h3.24v-2.91h-2.19v-1.14h1.98v-4.08h-2.01v-1.14h9.9v1.14h-2.01v4.08h1.98v1.14h-2.16v2.91h3.3v1.14ZM324.17,264.88v-4.08h-3.15v4.08h3.15ZM323.93,268.93v-2.91h-2.7v2.91h2.7Z"/>
  </g>
  <g>
    <path class="st0" d="M721.54,112.14h3.42v-1.77h1.38v5.7h-6.18v-5.7h1.38v1.77ZM721.48,117.11h8.49v3.3h-7.08v1.26h7.53v1.11h-8.91v-3.39h7.08v-1.17h-7.11v-1.11ZM724.96,114.96v-1.74h-3.42v1.74h3.42ZM728.59,109.8h1.38v2.76h1.89v1.14h-1.89v2.85h-1.38v-6.75Z"/>
    <path class="st0" d="M735.61,112.47v-.51h-2.85v-1.14h7.08v1.14h-2.82v.51c-.01,1.63,1.17,3.27,3.15,3.93l-.72,1.11c-1.47-.51-2.55-1.56-3.12-2.86-.57,1.46-1.73,2.61-3.3,3.17l-.72-1.14c2.04-.67,3.28-2.4,3.3-4.2ZM734.74,118.56h1.38v2.97h7.47v1.11h-8.85v-4.08ZM743.26,119.42h-1.38v-4.95h-2.52v-1.11h2.52v-3.57h1.38v9.63Z"/>
  </g>
  <g>
    <path class="st0" d="M765.66,267.82l-.81,1.05c-1.42-.69-2.5-2.05-3.06-3.67-.57,1.74-1.71,3.21-3.21,3.92l-.78-1.08c2-.92,3.29-3.17,3.3-5.31v-.87h-2.91v-1.11h2.88v-1.98h1.41v1.98h2.85v1.11h-2.88v.87c0,2.01,1.23,4.15,3.21,5.1ZM766.8,258.49h1.38v5.28h2.1v1.2h-2.1v6.63h-1.38v-13.11Z"/>
    <path class="st0" d="M781.56,265.31h-1.38v-1.53h-2.88v1.05h-6.06v-5.73h1.38v1.77h3.3v-1.77h1.38v1.2h2.88v-1.8h1.38v6.81ZM775.92,263.71v-1.77h-3.3v1.77h3.3ZM772.95,265.9h8.61v3.24h-7.2v1.2h7.65v1.11h-9.03v-3.36h7.2v-1.11h-7.23v-1.08ZM780.18,262.69v-1.32h-2.88v1.32h2.88Z"/>
    <path class="st0" d="M786.6,268.02v-1.35c-1.48-.21-2.44-1.11-2.43-2.38-.01-1.47,1.26-2.44,3.15-2.43,1.84-.01,3.13.96,3.15,2.43-.01,1.29-1,2.19-2.49,2.38v1.29c1.16-.06,2.33-.17,3.42-.31l.12,1.05c-2.85.48-5.92.51-8.19.51l-.21-1.14c1.04,0,2.23-.02,3.48-.04ZM783.36,260.06h3.24v-1.53h1.38v1.53h3.24v1.11h-7.86v-1.11ZM787.32,265.63c1.08.02,1.81-.51,1.8-1.35.01-.83-.72-1.37-1.8-1.38-1.11.01-1.85.55-1.86,1.38.01.84.75,1.37,1.86,1.35ZM793.56,263.98h1.98v1.17h-1.98v6.45h-1.38v-13.11h1.38v5.49Z"/>
  </g>
  <g>
    <path class="st0" d="M107.93,91.11c1.81-.04,3.28,1.34,3.28,3.02s-1.47,3.11-3.28,3.11-3.32-1.39-3.36-3.11c.04-1.68,1.51-3.07,3.36-3.02ZM104.9,100.18h6.05v22.26h-6.05v-22.26Z"/>
    <path class="st0" d="M128.59,122.45h-6.81l-7.81-22.26h6.47l4.62,15.96h.25l4.7-15.96h6.39l-7.81,22.26Z"/>
    <path class="st0" d="M137.66,111.44c.04-6.89,4.28-11.55,10.84-11.59,5.8.04,10.42,3.74,10.42,11.34v1.68h-15.21c0,3.36,1.97,5.46,5.12,5.46,2.06,0,3.53-.92,4.12-2.18h5.8c-.88,4.07-4.54,6.72-10,6.72-6.89,0-11.05-4.41-11.09-11.43ZM153.21,109.09c-.04-2.73-1.93-4.66-4.62-4.7-2.86.04-4.79,2.14-4.87,4.7h9.49Z"/>
    <path class="st0" d="M162.7,100.18h5.88v3.86h.25c.8-2.77,2.86-4.2,5.38-4.2.63,0,1.39.08,1.93.17v5.46c-.55-.21-1.72-.34-2.6-.34-2.73,0-4.75,1.89-4.79,4.62v12.69h-6.05v-22.26Z"/>
    <path class="st0" d="M188.15,104.21c-1.97,0-3.44.92-3.44,2.27,0,1.01.8,1.81,2.86,2.27l4.03.76c4.28.92,6.39,2.86,6.39,6.05,0,4.37-3.91,7.31-9.83,7.31s-9.58-2.69-10.08-7.06h6.13c.29,1.76,1.68,2.69,3.95,2.69s3.65-.88,3.7-2.35c-.04-1.13-.97-1.85-3.02-2.27l-3.7-.76c-4.28-.8-6.47-3.02-6.47-6.3,0-4.28,3.7-6.93,9.41-6.97,5.67.04,9.12,2.69,9.41,6.97h-5.63c-.29-1.6-1.64-2.6-3.7-2.6Z"/>
    <path class="st0" d="M204.7,91.11c1.81-.04,3.28,1.34,3.28,3.02s-1.47,3.11-3.28,3.11-3.32-1.39-3.36-3.11c.04-1.68,1.51-3.07,3.36-3.02ZM201.67,100.18h6.05v22.26h-6.05v-22.26Z"/>
    <path class="st0" d="M224.27,104.72h-4.2v10.92c0,1.72.88,2.18,2.1,2.18.63.04,1.68-.04,2.44-.08v4.79c-.67.08-1.76.21-3.19.25-4.45-.04-7.44-2.02-7.39-6.38v-11.68h-3.11v-4.54h3.11v-5.38h6.05v5.38h4.2v4.54Z"/>
    <path class="st0" d="M228.55,130.68v-4.7c.8.04,1.72.08,2.44.08,1.26,0,2.23-.13,2.94-2.02l.34-1.01-7.98-22.85h6.39l4.71,16.38h.25l4.71-16.38h6.38l-8.65,24.7c-1.3,3.61-3.7,5.92-8.4,5.88-1.22.04-2.31,0-3.11-.08Z"/>
  </g>
  <path class="st1" d="M20.2,125.48V27.8h32.56c28.84.14,45.94,18.35,46.08,48.84-.14,30.35-17.25,48.84-46.91,48.84h-31.73ZM51.11,112.51c22.08,0,32.97-12.83,33.11-35.87-.14-23.04-11.04-35.73-32.28-35.87h-16.83v71.74h16Z"/>
  <path class="st1" d="M401.7,120.85V23.17h32.56c28.83.14,45.94,18.35,46.08,48.84-.14,30.35-17.25,48.84-46.91,48.84h-31.73ZM432.61,107.88c22.08,0,32.97-12.83,33.11-35.87-.14-23.04-11.04-35.73-32.29-35.87h-16.83v71.74h16Z"/>
  <g>
    <path class="st0" d="M480,110.04c.04-6.89,4.28-11.55,10.84-11.59,5.8.04,10.42,3.74,10.42,11.34v1.68h-15.21c0,3.36,1.97,5.46,5.12,5.46,2.06,0,3.53-.92,4.12-2.18h5.8c-.88,4.07-4.54,6.72-10,6.72-6.89,0-11.05-4.41-11.09-11.43ZM495.54,107.69c-.04-2.73-1.93-4.66-4.62-4.7-2.86.04-4.79,2.14-4.87,4.7h9.49Z"/>
    <path class="st0" d="M517.26,121.05h-6.81l-7.81-22.26h6.47l4.62,15.96h.25l4.71-15.96h6.39l-7.81,22.26Z"/>
    <path class="st0" d="M526.33,110.04c.04-6.89,4.28-11.55,10.84-11.59,5.8.04,10.42,3.74,10.42,11.34v1.68h-15.21c0,3.36,1.97,5.46,5.12,5.46,2.06,0,3.53-.92,4.12-2.18h5.8c-.88,4.07-4.54,6.72-10,6.72-6.89,0-11.05-4.41-11.09-11.43ZM541.87,107.69c-.04-2.73-1.93-4.66-4.62-4.7-2.86.04-4.79,2.14-4.87,4.7h9.49Z"/>
    <path class="st0" d="M557.41,121.05h-6.05v-29.74h6.05v29.74Z"/>
    <path class="st0" d="M561.27,109.96c.04-6.85,4.24-11.47,11.01-11.51,6.72.04,10.88,4.66,10.92,11.51-.04,6.89-4.2,11.51-10.92,11.51s-10.96-4.62-11.01-11.51ZM572.28,116.76c3.11,0,4.75-2.9,4.7-6.81.04-3.91-1.6-6.85-4.7-6.81-3.19-.04-4.83,2.9-4.79,6.81-.04,3.91,1.6,6.81,4.79,6.81Z"/>
    <path class="st0" d="M586.97,98.78h5.96v3.7h.34c.8-1.76,2.56-3.99,6.3-4.03,4.96.04,9.07,3.86,9.07,11.51s-3.95,11.47-9.07,11.43c-3.61.04-5.46-2.06-6.3-3.86h-.25v11.85h-6.05v-30.58ZM597.64,116.59c3.11-.04,4.79-2.77,4.79-6.72s-1.64-6.55-4.79-6.55-4.71,2.56-4.71,6.55,1.72,6.68,4.71,6.72Z"/>
    <path class="st0" d="M612.51,98.78h5.8v3.86h.25c.92-2.56,3.19-4.16,6.22-4.2,3.07.04,5.33,1.64,6.05,4.2h.25c.88-2.52,3.44-4.16,6.72-4.2,4.12.04,6.97,2.77,6.97,7.65v14.95h-6.05v-13.78c0-2.56-1.51-3.78-3.53-3.78-2.27,0-3.61,1.6-3.61,3.95v13.61h-5.88v-13.95c0-2.18-1.39-3.61-3.44-3.61s-3.66,1.68-3.7,4.2v13.36h-6.05v-22.26Z"/>
    <path class="st0" d="M648.55,110.04c.04-6.89,4.28-11.55,10.84-11.59,5.8.04,10.42,3.74,10.42,11.34v1.68h-15.21c0,3.36,1.97,5.46,5.12,5.46,2.06,0,3.53-.92,4.12-2.18h5.8c-.88,4.07-4.54,6.72-10,6.72-6.89,0-11.05-4.41-11.09-11.43ZM664.09,107.69c-.04-2.73-1.93-4.66-4.62-4.7-2.86.04-4.79,2.14-4.87,4.7h9.49Z"/>
    <path class="st0" d="M679.63,121.05h-6.05v-22.26h5.8v3.86h.25c1.01-2.56,3.4-4.16,6.72-4.2,4.62.04,7.69,3.19,7.64,8.4v14.2h-6.05v-13.11c0-2.77-1.47-4.41-4.03-4.45-2.52.04-4.24,1.72-4.29,4.62v12.94Z"/>
    <path class="st0" d="M710.45,103.32h-4.2v10.92c0,1.72.88,2.18,2.1,2.18.63.04,1.68-.04,2.44-.08v4.79c-.67.08-1.76.21-3.19.25-4.45-.04-7.44-2.02-7.39-6.38v-11.68h-3.11v-4.54h3.11v-5.38h6.05v5.38h4.2v4.54Z"/>
  </g>
  <path class="st1" d="M22.3,270.95v-97.68h32.56c28.84.14,45.94,18.35,46.08,48.84-.14,30.35-17.25,48.84-46.91,48.84h-31.73ZM53.21,257.98c22.08,0,32.97-12.83,33.11-35.87-.14-23.04-11.04-35.73-32.28-35.87h-16.83v71.74h16Z"/>
  <g>
    <path class="st0" d="M100.6,260.14c.04-6.89,4.28-11.55,10.84-11.59,5.8.04,10.42,3.74,10.42,11.34v1.68h-15.21c0,3.36,1.97,5.46,5.12,5.46,2.06,0,3.53-.92,4.12-2.18h5.8c-.88,4.07-4.54,6.72-10,6.72-6.89,0-11.05-4.41-11.09-11.43ZM116.14,257.79c-.04-2.73-1.93-4.66-4.62-4.71-2.86.04-4.79,2.14-4.87,4.71h9.49Z"/>
    <path class="st0" d="M134.71,252.91c-1.97,0-3.44.92-3.44,2.27,0,1.01.8,1.81,2.86,2.27l4.03.76c4.28.92,6.39,2.86,6.39,6.05,0,4.37-3.91,7.31-9.83,7.31s-9.58-2.69-10.08-7.06h6.13c.29,1.76,1.68,2.69,3.95,2.69s3.65-.88,3.7-2.35c-.04-1.13-.97-1.85-3.02-2.27l-3.7-.76c-4.28-.8-6.47-3.03-6.47-6.3,0-4.28,3.7-6.93,9.41-6.97,5.67.04,9.12,2.69,9.41,6.97h-5.63c-.29-1.6-1.64-2.6-3.7-2.6Z"/>
    <path class="st0" d="M159.99,253.42h-4.2v10.92c0,1.72.88,2.18,2.1,2.18.63.04,1.68-.04,2.44-.08v4.79c-.67.08-1.76.21-3.19.25-4.45-.04-7.44-2.02-7.39-6.38v-11.68h-3.11v-4.54h3.11v-5.38h6.05v5.38h4.2v4.54Z"/>
    <path class="st0" d="M166.79,239.81c1.81-.04,3.28,1.34,3.28,3.02s-1.47,3.11-3.28,3.11-3.32-1.39-3.36-3.11c.04-1.68,1.51-3.07,3.36-3.02ZM163.77,248.88h6.05v22.26h-6.05v-22.26Z"/>
    <path class="st0" d="M180.65,271.15h-6.05v-22.26h5.8v3.86h.25c1.01-2.56,3.4-4.16,6.72-4.2,4.62.04,7.69,3.19,7.65,8.4v14.2h-6.05v-13.11c0-2.77-1.47-4.41-4.03-4.45-2.52.04-4.24,1.72-4.28,4.62v12.94Z"/>
    <path class="st0" d="M206.94,258.04l5.54-.25v-1.76c0-1.93-1.3-2.98-3.53-3.02-2.1.04-3.4.97-3.7,2.52h-5.8c.34-3.91,3.74-6.93,9.66-6.97,4.83.04,9.41,2.23,9.41,7.56v15.04h-5.71v-3.11h-.25c-1.05,2.1-3.15,3.53-6.47,3.53-4.24,0-7.39-2.23-7.39-6.64,0-5,3.99-6.6,8.23-6.89ZM207.79,267.36c2.81,0,4.75-1.85,4.7-4.2v-1.6c-.92.04-3.53.17-4.54.25-2.1.21-3.44,1.22-3.44,2.94s1.39,2.6,3.28,2.6Z"/>
    <path class="st0" d="M234.92,253.42h-4.2v10.92c0,1.72.88,2.18,2.1,2.18.63.04,1.68-.04,2.44-.08v4.79c-.67.08-1.76.21-3.19.25-4.45-.04-7.44-2.02-7.39-6.38v-11.68h-3.11v-4.54h3.11v-5.38h6.05v5.38h4.2v4.54Z"/>
    <path class="st0" d="M241.72,239.81c1.81-.04,3.28,1.34,3.28,3.02s-1.47,3.11-3.28,3.11-3.32-1.39-3.36-3.11c.04-1.68,1.51-3.07,3.36-3.02ZM238.7,248.88h6.05v22.26h-6.05v-22.26Z"/>
    <path class="st0" d="M248.61,260.06c.04-6.85,4.24-11.47,11.01-11.51,6.72.04,10.88,4.66,10.92,11.51-.04,6.89-4.2,11.51-10.92,11.51s-10.96-4.62-11.01-11.51ZM259.61,266.86c3.11,0,4.75-2.9,4.7-6.8.04-3.91-1.6-6.85-4.7-6.81-3.19-.04-4.83,2.9-4.79,6.81-.04,3.91,1.6,6.8,4.79,6.8Z"/>
    <path class="st0" d="M280.36,271.15h-6.05v-22.26h5.8v3.86h.25c1.01-2.56,3.4-4.16,6.72-4.2,4.62.04,7.69,3.19,7.64,8.4v14.2h-6.05v-13.11c0-2.77-1.47-4.41-4.03-4.45-2.52.04-4.24,1.72-4.29,4.62v12.94Z"/>
  </g>
  <g>
    <path class="st0" d="M24.79,18.53c0,.19-.06.35-.19.47s-.28.18-.47.18h-2.43c-.19,0-.35-.06-.47-.18s-.18-.28-.18-.47v-7.87c0-.19.06-.35.18-.47s.28-.18.47-.18h2.43c.19,0,.35.06.47.18s.19.28.19.47v7.87ZM23.97,18.46v-7.73h-2.12v7.73h2.12Z"/>
    <path class="st0" d="M27.77,19.18h-.82v-6.36h-.36v-.03l.52-2.78h.66v9.17Z"/>
  </g>
  <g>
    <path class="st0" d="M405.67,18.53c0,.19-.06.35-.19.47s-.28.18-.47.18h-2.43c-.19,0-.35-.06-.47-.18s-.18-.28-.18-.47v-7.87c0-.19.06-.35.18-.47s.28-.18.47-.18h2.43c.19,0,.35.06.47.18s.19.28.19.47v7.87ZM404.85,18.46v-7.73h-2.12v7.73h2.12Z"/>
    <path class="st0" d="M411.14,19.18h-3.64v-.43l2.81-5.83v-2.19h-1.87v2.06h-.82v-2.13c0-.19.06-.35.18-.47s.28-.18.47-.18h2.21c.19,0,.35.06.47.18s.18.28.18.47v1.95c0,.23-.07.5-.22.8l-2.43,5.05h2.65v.72Z"/>
  </g>
  <g>
    <path class="st0" d="M25.48,166.53c0,.19-.06.35-.19.47s-.28.18-.47.18h-2.43c-.19,0-.35-.06-.47-.18s-.18-.28-.18-.47v-7.87c0-.19.06-.35.18-.47s.28-.18.47-.18h2.43c.19,0,.35.06.47.18s.19.28.19.47v7.87ZM24.66,166.46v-7.73h-2.12v7.73h2.12Z"/>
    <path class="st0" d="M31.2,166.53c0,.19-.06.35-.18.47s-.28.18-.47.18h-2.36c-.19,0-.35-.06-.47-.18s-.18-.28-.18-.47v-2.33h.81v2.26h2.03v-2.81l-1.62-1.21v-.18l1.61-1.2v-2.33h-2v2.06h-.81v-2.13c0-.19.06-.35.18-.47s.28-.18.47-.18h2.34c.19,0,.35.06.47.18s.18.28.18.47v2.23c0,.29-.12.52-.35.69l-1.09.77,1.1.77c.23.16.35.39.35.7v2.72Z"/>
  </g>
  <g>
    <path class="st0" d="M405.71,166.53c0,.19-.06.35-.19.47s-.28.18-.47.18h-2.43c-.19,0-.35-.06-.47-.18s-.18-.28-.18-.47v-7.87c0-.19.06-.35.18-.47s.28-.18.47-.18h2.43c.19,0,.35.06.47.18s.19.28.19.47v7.87ZM404.9,166.46v-7.73h-2.12v7.73h2.12Z"/>
    <path class="st0" d="M411.35,164.79h-.7v2.39h-.77v-2.39h-2.59v-.42l2.22-6.36h.77v.04l-2.11,6.05h1.71v-3.33h.77v3.33h.7v.69Z"/>
  </g>
  <g>
    <path class="st0" d="M481.28,258.04c.04-6.89,4.28-11.55,10.84-11.59,5.8.04,10.42,3.74,10.42,11.34v1.68h-15.21c0,3.36,1.97,5.46,5.12,5.46,2.06,0,3.53-.92,4.12-2.18h5.8c-.88,4.07-4.54,6.72-10,6.72-6.89,0-11.05-4.41-11.09-11.43ZM496.82,255.69c-.04-2.73-1.93-4.66-4.62-4.71-2.86.04-4.79,2.14-4.87,4.71h9.49Z"/>
    <path class="st0" d="M518.24,251.32h-4.45v17.73h-6.05v-17.73h-3.19v-4.54h3.19v-1.68c0-4.71,2.81-7.14,7.31-7.14,1.34,0,2.52.13,3.61.34v4.62c-.88-.08-1.55-.13-1.85-.08-1.97-.04-3.02.71-3.02,2.6v1.34h4.45v4.54Z"/>
    <path class="st0" d="M533.7,251.32h-4.45v17.73h-6.05v-17.73h-3.19v-4.54h3.19v-1.68c0-4.71,2.81-7.14,7.31-7.14,1.34,0,2.52.13,3.61.34v4.62c-.88-.08-1.55-.13-1.85-.08-1.97-.04-3.02.71-3.02,2.6v1.34h4.45v4.54Z"/>
    <path class="st0" d="M535.5,258.04c.04-6.89,4.28-11.55,10.84-11.59,5.8.04,10.42,3.74,10.42,11.34v1.68h-15.21c0,3.36,1.97,5.46,5.12,5.46,2.06,0,3.53-.92,4.12-2.18h5.8c-.88,4.07-4.54,6.72-10,6.72-6.89,0-11.05-4.41-11.09-11.43ZM551.04,255.69c-.04-2.73-1.93-4.66-4.62-4.71-2.86.04-4.79,2.14-4.87,4.71h9.49Z"/>
    <path class="st0" d="M560.53,246.78h5.88v3.86h.25c.8-2.77,2.86-4.2,5.38-4.2.63,0,1.39.08,1.93.17v5.46c-.55-.21-1.72-.34-2.6-.34-2.73,0-4.75,1.89-4.79,4.62v12.69h-6.05v-22.26Z"/>
    <path class="st0" d="M575.28,258.04c.04-6.89,4.28-11.55,10.84-11.59,5.8.04,10.42,3.74,10.42,11.34v1.68h-15.21c0,3.36,1.97,5.46,5.12,5.46,2.06,0,3.53-.92,4.12-2.18h5.8c-.88,4.07-4.54,6.72-10,6.72-6.89,0-11.05-4.41-11.09-11.43ZM590.82,255.69c-.04-2.73-1.93-4.66-4.62-4.71-2.86.04-4.79,2.14-4.87,4.71h9.49Z"/>
    <path class="st0" d="M606.36,269.05h-6.05v-22.26h5.8v3.86h.25c1.01-2.56,3.4-4.16,6.72-4.2,4.62.04,7.69,3.19,7.64,8.4v14.2h-6.05v-13.11c0-2.77-1.47-4.41-4.03-4.45-2.52.04-4.24,1.72-4.29,4.62v12.94Z"/>
    <path class="st0" d="M637.18,251.32h-4.2v10.92c0,1.72.88,2.18,2.1,2.18.63.04,1.68-.04,2.44-.08v4.79c-.67.08-1.76.21-3.19.25-4.45-.04-7.44-2.02-7.39-6.38v-11.68h-3.11v-4.54h3.11v-5.38h6.05v5.38h4.2v4.54Z"/>
    <path class="st0" d="M643.99,237.71c1.81-.04,3.28,1.34,3.28,3.02s-1.47,3.11-3.28,3.11-3.32-1.39-3.36-3.11c.04-1.68,1.51-3.07,3.36-3.02ZM640.96,246.78h6.05v22.26h-6.05v-22.26Z"/>
    <path class="st0" d="M659.02,255.94l5.54-.25v-1.76c0-1.93-1.3-2.98-3.53-3.02-2.1.04-3.4.97-3.7,2.52h-5.8c.34-3.91,3.74-6.93,9.66-6.97,4.83.04,9.41,2.23,9.41,7.56v15.04h-5.71v-3.11h-.25c-1.05,2.1-3.15,3.53-6.47,3.53-4.24,0-7.39-2.23-7.39-6.64,0-5,3.99-6.6,8.23-6.89ZM659.86,265.27c2.81,0,4.75-1.85,4.71-4.2v-1.6c-.92.04-3.53.17-4.54.25-2.1.21-3.44,1.22-3.44,2.94s1.39,2.6,3.28,2.6Z"/>
    <path class="st0" d="M687,251.32h-4.2v10.92c0,1.72.88,2.18,2.1,2.18.63.04,1.68-.04,2.44-.08v4.79c-.67.08-1.76.21-3.19.25-4.45-.04-7.44-2.02-7.39-6.38v-11.68h-3.11v-4.54h3.11v-5.38h6.05v5.38h4.2v4.54Z"/>
    <path class="st0" d="M693.8,237.71c1.81-.04,3.28,1.34,3.28,3.02s-1.47,3.11-3.28,3.11-3.32-1.39-3.36-3.11c.04-1.68,1.51-3.07,3.36-3.02ZM690.77,246.78h6.05v22.26h-6.05v-22.26Z"/>
    <path class="st0" d="M700.69,257.96c.04-6.85,4.24-11.47,11.01-11.51,6.72.04,10.88,4.66,10.92,11.51-.04,6.89-4.2,11.51-10.92,11.51s-10.96-4.62-11.01-11.51ZM711.69,264.76c3.11,0,4.75-2.9,4.7-6.8.04-3.91-1.6-6.85-4.7-6.81-3.19-.04-4.83,2.9-4.79,6.81-.04,3.91,1.6,6.8,4.79,6.8Z"/>
    <path class="st0" d="M732.44,269.05h-6.05v-22.26h5.8v3.86h.25c1.01-2.56,3.4-4.16,6.72-4.2,4.62.04,7.69,3.19,7.64,8.4v14.2h-6.05v-13.11c0-2.77-1.47-4.41-4.03-4.45-2.52.04-4.24,1.72-4.29,4.62v12.94Z"/>
  </g>
  <path class="st1" d="M402.4,273.05v-97.68h32.56c28.83.14,45.94,18.35,46.08,48.84-.14,30.35-17.25,48.84-46.91,48.84h-31.73ZM433.31,260.08c22.08,0,32.97-12.83,33.11-35.87-.14-23.04-11.04-35.73-32.29-35.87h-16.83v71.74h16Z"/>
</svg>