<?xml version="1.0" encoding="UTF-8"?>
<svg id="Layer_2" data-name="Layer 2" xmlns="http://www.w3.org/2000/svg" viewBox="0 0 611.04 203.87">
  <defs>
    <style>
      .cls-1 {
        fill: #170c2d;
      }

      .cls-2 {
        fill: #fff;
      }
    </style>
  </defs>
  <g id="Layer_1-2" data-name="Layer 1">
    <rect class="cls-1" x="134.99" y="0" width="310" height="27" rx="7.88" ry="7.88"/>
    <g>
      <g>
        <path class="cls-2" d="M216.51,19.23c-3.76,0-6.6-2.68-6.6-7.28s2.84-7.26,6.6-7.24c3.76-.02,6.62,2.64,6.6,7.24.02,4.62-2.84,7.28-6.6,7.28ZM216.51,16.63c2.2-.02,3.64-1.66,3.64-4.68s-1.44-4.66-3.64-4.64c-2.18-.02-3.62,1.62-3.6,4.64-.02,3.02,1.42,4.66,3.6,4.68Z"/>
        <path class="cls-2" d="M231.99,8.43h2.88v10.6h-2.76v-1.92h-.12c-.46,1.24-1.62,2.06-3.2,2.04-2.14.02-3.58-1.48-3.6-3.96v-6.76h2.88v6.24c.02,1.26.74,2.04,1.88,2.04,1.06,0,2.06-.74,2.04-2.2v-6.08Z"/>
        <path class="cls-2" d="M237.15,8.43h2.8v1.84h.12c.38-1.32,1.36-2,2.56-2,.3,0,.66.04.92.08v2.6c-.26-.1-.82-.16-1.24-.16-1.3,0-2.26.9-2.28,2.2v6.04h-2.88v-10.6Z"/>
        <path class="cls-2" d="M254.87,7.15c-1.5,0-2.32.68-2.32,1.6-.04,1.06,1.02,1.52,2.24,1.8l1.28.32c2.42.52,4.22,1.76,4.24,4.12-.02,2.58-2.04,4.24-5.48,4.24s-5.6-1.58-5.68-4.6h2.84c.12,1.42,1.24,2.12,2.8,2.12s2.54-.7,2.56-1.76c-.02-.96-.88-1.42-2.44-1.8l-1.52-.36c-2.4-.6-3.86-1.78-3.88-3.88,0-2.54,2.28-4.26,5.36-4.24,3.14-.02,5.2,1.72,5.24,4.24h-2.84c-.08-1.14-.98-1.8-2.4-1.8Z"/>
        <path class="cls-2" d="M265.59,12.79l2.64-.12v-.84c0-.92-.62-1.42-1.68-1.44-1,.02-1.62.46-1.76,1.2h-2.76c.16-1.86,1.78-3.3,4.6-3.32,2.3.02,4.48,1.06,4.48,3.6v7.16h-2.72v-1.48h-.12c-.5,1-1.5,1.68-3.08,1.68-2.02,0-3.52-1.06-3.52-3.16,0-2.38,1.9-3.14,3.92-3.28ZM265.99,17.23c1.34,0,2.26-.88,2.24-2v-.76c-.44.02-1.68.08-2.16.12-1,.1-1.64.58-1.64,1.4s.66,1.24,1.56,1.24Z"/>
        <path class="cls-2" d="M278.99,10.59h-2.12v8.44h-2.88v-8.44h-1.52v-2.16h1.52v-.8c0-2.24,1.34-3.4,3.48-3.4.64,0,1.2.06,1.72.16v2.2c-.42-.04-.74-.06-.88-.04-.94-.02-1.44.34-1.44,1.24v.64h2.12v2.16Z"/>
        <path class="cls-2" d="M279.85,13.79c.02-3.28,2.04-5.5,5.16-5.52,2.76.02,4.96,1.78,4.96,5.4v.8h-7.24c0,1.6.94,2.6,2.44,2.6.98,0,1.68-.44,1.96-1.04h2.76c-.42,1.94-2.16,3.2-4.76,3.2-3.28,0-5.26-2.1-5.28-5.44ZM287.25,12.67c-.02-1.3-.92-2.22-2.2-2.24-1.36.02-2.28,1.02-2.32,2.24h4.52Z"/>
        <path class="cls-2" d="M297.37,10.59h-2v5.2c0,.82.42,1.04,1,1.04.3.02.8-.02,1.16-.04v2.28c-.32.04-.84.1-1.52.12-2.12-.02-3.54-.96-3.52-3.04v-5.56h-1.48v-2.16h1.48v-2.56h2.88v2.56h2v2.16Z"/>
        <path class="cls-2" d="M299.41,22.95v-2.24c.38.02.82.04,1.16.04.6,0,1.06-.06,1.4-.96l.16-.48-3.8-10.88h3.04l2.24,7.8h.12l2.24-7.8h3.04l-4.12,11.76c-.62,1.72-1.76,2.82-4,2.8-.58.02-1.1,0-1.48-.04Z"/>
        <path class="cls-2" d="M320.33,7.15c-1.5,0-2.32.68-2.32,1.6-.04,1.06,1.02,1.52,2.24,1.8l1.28.32c2.42.52,4.22,1.76,4.24,4.12-.02,2.58-2.04,4.24-5.48,4.24s-5.6-1.58-5.68-4.6h2.84c.12,1.42,1.24,2.12,2.8,2.12s2.54-.7,2.56-1.76c-.02-.96-.88-1.42-2.44-1.8l-1.52-.36c-2.4-.6-3.86-1.78-3.88-3.88,0-2.54,2.28-4.26,5.36-4.24,3.14-.02,5.2,1.72,5.24,4.24h-2.84c-.08-1.14-.98-1.8-2.4-1.8Z"/>
        <path class="cls-2" d="M327.17,13.75c.02-3.26,2.02-5.46,5.24-5.48,3.2.02,5.18,2.22,5.2,5.48-.02,3.28-2,5.48-5.2,5.48s-5.22-2.2-5.24-5.48ZM332.41,16.99c1.48,0,2.26-1.38,2.24-3.24.02-1.86-.76-3.26-2.24-3.24-1.52-.02-2.3,1.38-2.28,3.24-.02,1.86.76,3.24,2.28,3.24Z"/>
        <path class="cls-2" d="M342.29,19.03h-2.88V4.86h2.88v14.16Z"/>
        <path class="cls-2" d="M351.37,8.43h2.88v10.6h-2.76v-1.92h-.12c-.46,1.24-1.62,2.06-3.2,2.04-2.14.02-3.58-1.48-3.6-3.96v-6.76h2.88v6.24c.02,1.26.74,2.04,1.88,2.04,1.06,0,2.06-.74,2.04-2.2v-6.08Z"/>
        <path class="cls-2" d="M362.13,10.59h-2v5.2c0,.82.42,1.04,1,1.04.3.02.8-.02,1.16-.04v2.28c-.32.04-.84.1-1.52.12-2.12-.02-3.54-.96-3.52-3.04v-5.56h-1.48v-2.16h1.48v-2.56h2.88v2.56h2v2.16Z"/>
        <path class="cls-2" d="M365.37,4.1c.86-.02,1.56.64,1.56,1.44s-.7,1.48-1.56,1.48-1.58-.66-1.6-1.48c.02-.8.72-1.46,1.6-1.44ZM363.93,8.43h2.88v10.6h-2.88v-10.6Z"/>
        <path class="cls-2" d="M368.65,13.75c.02-3.26,2.02-5.46,5.24-5.48,3.2.02,5.18,2.22,5.2,5.48-.02,3.28-2,5.48-5.2,5.48s-5.22-2.2-5.24-5.48ZM373.89,16.99c1.48,0,2.26-1.38,2.24-3.24.02-1.86-.76-3.26-2.24-3.24-1.52-.02-2.3,1.38-2.28,3.24-.02,1.86.76,3.24,2.28,3.24Z"/>
        <path class="cls-2" d="M383.77,19.03h-2.88v-10.6h2.76v1.84h.12c.48-1.22,1.62-1.98,3.2-2,2.2.02,3.66,1.52,3.64,4v6.76h-2.88v-6.24c0-1.32-.7-2.1-1.92-2.12-1.2.02-2.02.82-2.04,2.2v6.16Z"/>
        <path class="cls-2" d="M397.17,10.35c-.94,0-1.64.44-1.64,1.08,0,.48.38.86,1.36,1.08l1.92.36c2.04.44,3.04,1.36,3.04,2.88,0,2.08-1.86,3.48-4.68,3.48s-4.56-1.28-4.8-3.36h2.92c.14.84.8,1.28,1.88,1.28s1.74-.42,1.76-1.12c-.02-.54-.46-.88-1.44-1.08l-1.76-.36c-2.04-.38-3.08-1.44-3.08-3,0-2.04,1.76-3.3,4.48-3.32,2.7.02,4.34,1.28,4.48,3.32h-2.68c-.14-.76-.78-1.24-1.76-1.24Z"/>
      </g>
      <g>
        <path class="cls-2" d="M96.22,88.03h-20.76v17.4h-7.44v-17.4h-20.52v-6.12h48.72v6.12ZM71.74,53.83c11.4.06,19.44,4.74,19.44,12.12s-8.04,11.94-19.44,11.88c-11.46.06-19.38-4.62-19.32-11.88-.06-7.38,7.86-12.06,19.32-12.12ZM71.74,71.95c7.2,0,11.7-2.16,11.76-6-.06-3.9-4.56-6.12-11.76-6.12s-11.7,2.22-11.64,6.12c-.06,3.84,4.44,6,11.64,6Z"/>
        <path class="cls-2" d="M99.82,71.23h17.64v-8.64h-17.64v-6h25.32v20.52h-17.64v9.84c8.16-.06,15.06-.48,22.92-1.8l.6,6c-8.7,1.56-16.62,1.92-26.4,1.92h-4.8v-21.84ZM141.7,105.55h-7.44v-53.52h7.44v53.52Z"/>
        <path class="cls-2" d="M166.6,63.67h-17.7v-6.12h25.32c-.06,15.96-6.24,29.76-24.12,38.52l-4.32-5.64c12.66-6.36,19.38-14.88,20.82-26.76ZM188.5,72.55h7.56v6.12h-7.56v26.64h-7.56v-53.28h7.56v20.52Z"/>
        <path class="cls-2" d="M216.94,66.43v-2.88h-8.76v-6h24v6h-8.04v2.88c-.06,8.82,2.76,17.76,10.56,22.2l-4.44,5.52c-4.8-2.82-7.86-7.56-9.66-13.26-1.86,6.18-5.04,11.46-9.9,14.46l-4.56-5.52c7.86-4.8,10.8-14.4,10.8-23.4ZM228.46,70.39h6.96v-17.4h6.96v49.92h-6.96v-26.52h-6.96v-6ZM253.3,105.43h-7.08v-53.4h7.08v53.4Z"/>
        <path class="cls-2" d="M256.78,75.91h18.12v-9.36h7.44v9.36h22.92v6h-48.48v-6ZM299.74,95.35c-.06,6.36-7.38,10.08-19.08,10.08s-18.96-3.72-18.96-10.08,7.44-10.02,18.96-10.08c11.7.06,19.02,3.72,19.08,10.08ZM262.3,54.55h37.2v4.32c0,4.2,0,8.76-1.56,14.28l-7.32-.72c1.2-4.86,1.38-8.46,1.32-12.12h-29.64v-5.76ZM280.66,99.79c7.38-.06,11.64-1.5,11.64-4.44s-4.26-4.5-11.64-4.44c-7.32-.06-11.52,1.5-11.52,4.44s4.2,4.38,11.52,4.44Z"/>
        <path class="cls-2" d="M305.86,60.07h12v-7.2h7.56v7.2h11.76v6h-31.32v-6ZM321.7,69.07c7.74-.06,13.56,5.22,13.56,12.72s-5.82,12.66-13.56,12.6c-7.92.06-13.74-5.22-13.68-12.6-.06-7.5,5.76-12.78,13.68-12.72ZM321.7,88.27c3.66.06,6.36-2.4,6.36-6.48s-2.7-6.66-6.36-6.72c-3.84.06-6.54,2.58-6.48,6.72-.06,4.08,2.64,6.54,6.48,6.48ZM348.22,73.03h7.8v6.12h-7.8v26.28h-7.44v-53.4h7.44v21Z"/>
        <path class="cls-2" d="M355.54,78.19h48.72v5.88h-48.72v-5.88ZM361.18,88.39h7.44v9.84h30.6v6h-38.04v-15.84ZM398.86,72.55h-37.2v-18.6h7.44v12.72h29.76v5.88Z"/>
        <path class="cls-2" d="M444.34,73.87h20.76v6h-48.72v-6h20.52v-5.76h7.44v5.76ZM436.78,53.71v-1.2h7.68v1.2c0,5.7,5.76,10.74,18,11.88l-2.64,5.64c-9.12-1.08-15.84-4.32-19.2-9.18-3.42,4.86-10.08,8.1-19.32,9.18l-2.52-5.64c12.18-1.14,18.06-6.18,18-11.88ZM422.02,91.03h29.76v-2.88h-29.76v-5.64h37.08v13.8h-29.76v3.12h31.2v5.64h-38.52v-14.04Z"/>
        <path class="cls-2" d="M465.82,84.07h48.72v5.88h-20.76v15.6h-7.44v-15.6h-20.52v-5.88ZM509.02,69.55h-29.88v4.56h31.08v5.88h-38.64v-15.96h29.76v-4.32h-29.88v-6h37.56v15.84Z"/>
        <path class="cls-2" d="M547.3,79.03l-4.08,5.88c-5.64-2.22-9.48-6.42-11.7-11.64-2.28,5.58-6.36,10.02-12.42,12.36l-4.08-5.88c8.76-3.12,12.66-10.62,12.72-18.48v-6.12h7.56v6.12c-.06,7.38,3.6,14.7,12,17.76ZM524.74,87.91h7.56v10.56h29.04v6h-36.6v-16.56ZM543.7,69.43h9.12v-4.32h-9.12v-6h9.12v-6.96h7.44v39.48h-7.44v-16.2h-9.12v-6Z"/>
      </g>
      <g>
        <path class="cls-2" d="M54.04,163.23h-2.08v-5.36h2.08v5.36ZM55.52,157.86h2.08v5.36h-2.08v-5.36Z"/>
        <path class="cls-2" d="M69.72,164.79l.16,1.84c-1.46.28-2.96.46-4.44.58v6.1h-2.48v-5.94c-1.56.06-3.04.08-4.32.1l-.32-2.04c3.16,0,7.62-.08,11.4-.64ZM68.76,160.59c.02,2.2-1.96,3.76-4.68,3.76s-4.68-1.56-4.68-3.76,1.98-3.8,4.68-3.8,4.7,1.54,4.68,3.8ZM64.08,162.31c1.38.02,2.32-.64,2.32-1.72,0-1.16-.94-1.82-2.32-1.8-1.32-.02-2.26.64-2.24,1.8-.02,1.08.92,1.74,2.24,1.72ZM70.8,156.06h2.48v17.76h-2.48v-17.76Z"/>
        <path class="cls-2" d="M74.8,157.59h4.04v-1.68h2.44v1.68h4v2h-10.48v-2ZM80.04,160.19c2.52-.02,4.28,1.32,4.28,3.16,0,1.94-1.76,3.22-4.28,3.24-2.46-.02-4.26-1.3-4.24-3.24-.02-1.84,1.78-3.18,4.24-3.16ZM77.8,167.55h11.96v6.08h-11.96v-6.08ZM80.04,164.75c1.14-.02,1.9-.5,1.88-1.4.02-.84-.74-1.3-1.88-1.32-1.14.02-1.88.48-1.88,1.32,0,.9.74,1.38,1.88,1.4ZM87.32,171.63v-2.12h-7.04v2.12h7.04ZM89.76,166.79h-2.48v-3.48h-2.32v-2.04h2.32v-5.24h2.48v10.76Z"/>
        <path class="cls-2" d="M99.24,158.87h-3.6v-2h9.64v2h-3.52c.12,2,1.38,4.06,4.08,4.92l-1.24,1.96c-1.96-.66-3.32-1.94-4.08-3.54-.78,1.76-2.2,3.18-4.28,3.86l-1.28-1.92c2.8-.96,4.14-3.12,4.28-5.28ZM98.16,166.47h2.48v1.68h6.92v-1.68h2.48v7.16h-11.88v-7.16ZM107.56,171.63v-1.56h-6.92v1.56h6.92ZM110.04,165.79h-2.48v-3.72h-2.84v-2.04h2.84v-4h2.48v9.76Z"/>
        <path class="cls-2" d="M125.88,158.55c-.02,1.5-.02,3.2-.4,5.36h2.32v2h-16.28v-2h11.4c.42-2,.46-3.48.44-4.88h-9.84v-2h12.36v1.52ZM113.6,167.47h2.44v4.04h10.32v2h-12.76v-6.04Z"/>
        <path class="cls-2" d="M146.8,166.31h-2.48v-1.76h-4v-1.96h4v-1.72h-3.82c-1.1,2.82-3.64,4.76-7.54,5.8l-1-1.92c4.08-1.1,6.1-3.06,6.46-5.48h-5.5v-2h8.2c0,.58-.04,1.12-.12,1.64h3.32v-2.84h2.48v10.24ZM140.88,166.51c3.6.02,6.04,1.4,6.04,3.6s-2.44,3.64-6.04,3.64-6.1-1.4-6.08-3.64c-.02-2.2,2.42-3.58,6.08-3.6ZM140.88,171.79c2.2-.02,3.54-.58,3.56-1.68-.02-1.08-1.36-1.66-3.56-1.64-2.26-.02-3.6.56-3.6,1.64s1.34,1.66,3.6,1.68Z"/>
        <path class="cls-2" d="M148.28,169.63h5.8v-6.12h2.48v6.12h7.96v2.04h-16.24v-2.04ZM162.92,159.26c0,2.22,0,4.72-.68,8.52l-2.52-.28c.66-3.34.7-5.82.72-7.92h-10.48v-2h12.96v1.68Z"/>
        <path class="cls-2" d="M180,167.87l-1.48,2c-2.04-.92-3.46-2.68-4.26-4.88-.8,2.4-2.26,4.34-4.42,5.32l-1.52-2.08c3.12-1.3,4.62-4.7,4.64-8.16v-2.64h2.52v2.64c0,3.28,1.48,6.54,4.52,7.8ZM180.92,156.02h2.52v17.84h-2.52v-17.84Z"/>
        <path class="cls-2" d="M185.04,169.59h16.28v2.04h-16.28v-2.04ZM200.72,164.47l-1.08,2.08c-3.1-.62-5.4-2.36-6.56-4.64-1.16,2.26-3.48,4-6.56,4.64l-1.08-2.08c3.98-.7,6.28-3.5,6.32-6.08v-1.28h2.64v1.28c0,2.62,2.3,5.4,6.32,6.08Z"/>
        <path class="cls-2" d="M209,159.1h-4.36v1.44h3.72v1.88h-3.72v1.56c1.92-.02,3.34-.12,4.96-.4l.28,1.96c-2.06.36-3.76.42-6.44.4h-1.2v-8.84h6.76v2ZM204.68,167.35h12.12v6.28h-12.12v-6.28ZM214.32,171.63v-2.32h-7.16v2.32h7.16ZM209.12,160.31h1.8v-4h2.36v10.24h-2.36v-4.24h-1.8v-2ZM214.44,156.02h2.36v10.64h-2.36v-10.64Z"/>
        <path class="cls-2" d="M222.04,157.59h2.76c-1.44,1.84-2.54,5.48-2.56,8.76.02,3.28,1.12,6.92,2.56,8.76h-2.76c-1.88-2.48-2.78-5.32-2.8-8.76.02-3.44.92-6.28,2.8-8.76Z"/>
        <path class="cls-2" d="M225.68,157.86h5.64c3.1.02,4.66,1.52,4.68,3.64-.02,1.68-1.1,2.72-2.56,3.04v.16c1.6.06,3.1,1.32,3.12,3.44-.02,2.22-1.7,3.88-4.88,3.88h-6v-14.16ZM230.88,163.83c1.22-.02,2.14-.7,2.16-1.84-.02-1.02-.78-1.72-2.12-1.72h-2.32v3.56h2.28ZM231.08,169.63c1.7-.02,2.44-.72,2.44-1.8,0-1.18-.92-2.02-2.36-2h-2.56v3.8h2.48Z"/>
        <path class="cls-2" d="M237.6,157.86h9.48v2.44h-6.56v3.44h6.08v2.4h-6.08v3.44h6.6v2.44h-9.52v-14.16Z"/>
        <path class="cls-2" d="M254.88,172.23c-3.76,0-6.6-2.68-6.6-7.28s2.84-7.26,6.6-7.24c3.76-.02,6.62,2.64,6.6,7.24.02,4.62-2.84,7.28-6.6,7.28ZM254.88,169.63c2.2-.02,3.64-1.66,3.64-4.68s-1.44-4.66-3.64-4.64c-2.18-.02-3.62,1.62-3.6,4.64-.02,3.02,1.42,4.66,3.6,4.68Z"/>
        <path class="cls-2" d="M269.2,160.31c-2.2-.02-3.66,1.68-3.64,4.64-.02,3.06,1.46,4.66,3.64,4.68,1.6-.02,2.8-.9,3.08-2.4h2.96c-.32,2.62-2.5,5-6.12,5s-6.56-2.66-6.56-7.28,2.84-7.26,6.56-7.24c3.28-.02,5.74,1.86,6.12,5.12h-2.96c-.22-1.58-1.44-2.54-3.08-2.52Z"/>
        <path class="cls-2" d="M282.84,172.23c-3.76,0-6.6-2.68-6.6-7.28s2.84-7.26,6.6-7.24c3.76-.02,6.62,2.64,6.6,7.24.02,4.62-2.84,7.28-6.6,7.28ZM282.84,169.63c2.2-.02,3.64-1.66,3.64-4.68s-1.44-4.66-3.64-4.64c-2.18-.02-3.62,1.62-3.6,4.64-.02,3.02,1.42,4.66,3.6,4.68Z"/>
        <path class="cls-2" d="M302.6,172.03h-2.56l-6.2-9h-.12v9h-2.92v-14.16h2.56l6.2,9h.12v-9h2.92v14.16Z"/>
        <path class="cls-2" d="M312.12,166.19h-3.68v-2.44h3.68v-3.64h2.44v3.64h3.64v2.44h-3.64v3.68h-2.44v-3.68Z"/>
        <path class="cls-2" d="M330.44,160.31c-2.16-.02-3.66,1.66-3.64,4.64-.02,2.98,1.42,4.66,3.68,4.68,2-.02,3.22-1.14,3.24-2.92h-3.04v-2.24h5.88v1.8c.02,3.7-2.54,5.96-6.08,5.96-3.98,0-6.68-2.78-6.68-7.24s2.86-7.3,6.6-7.28c3.18-.02,5.64,1.94,6.04,4.72h-3c-.38-1.32-1.44-2.14-3-2.12Z"/>
        <path class="cls-2" d="M337.92,157.86h5.52c3.24.02,5.08,2,5.08,4.8s-1.88,4.76-5.12,4.76h-2.56v4.6h-2.92v-14.16ZM342.92,165.07c1.74-.02,2.58-1,2.56-2.4.02-1.42-.82-2.38-2.56-2.36h-2.08v4.76h2.08Z"/>
        <path class="cls-2" d="M354.84,160.15c-1.5,0-2.32.68-2.32,1.6-.04,1.06,1.02,1.52,2.24,1.8l1.28.32c2.42.52,4.22,1.76,4.24,4.12-.02,2.58-2.04,4.24-5.48,4.24s-5.6-1.58-5.68-4.6h2.84c.12,1.42,1.24,2.12,2.8,2.12s2.54-.7,2.56-1.76c-.02-.96-.88-1.42-2.44-1.8l-1.52-.36c-2.4-.6-3.86-1.78-3.88-3.88,0-2.54,2.28-4.26,5.36-4.24,3.14-.02,5.2,1.72,5.24,4.24h-2.84c-.08-1.14-.98-1.8-2.4-1.8Z"/>
        <path class="cls-2" d="M363.44,175.11h-2.76c1.44-1.84,2.54-5.48,2.56-8.76-.02-3.28-1.12-6.92-2.56-8.76h2.76c1.88,2.48,2.78,5.32,2.8,8.76-.02,3.44-.92,6.28-2.8,8.76Z"/>
        <path class="cls-2" d="M369.8,176.15h-2.08l.96-5.56h2.8l-1.68,5.56Z"/>
        <path class="cls-2" d="M375.84,169.63h16.28v2.04h-16.28v-2.04ZM390.32,166.27h-12.56v-8.72h12.44v2h-9.96v4.72h10.08v2Z"/>
        <path class="cls-2" d="M408.56,167.87h-16.24v-2h6.88v-1.36h-4.88v-4.88h9.8v-1.28h-9.8v-1.92h12.28v4.92h-9.8v1.28h10.12v1.88h-5.24v1.36h6.88v2ZM394.36,168.79h2.48v3.16h10.16v1.96h-12.64v-5.12Z"/>
        <path class="cls-2" d="M408.8,163.23h16.24v1.96h-16.24v-1.96ZM423.36,159.35c0,1.96-2.36,3.04-6.44,3.04s-6.5-1.08-6.48-3.04c-.02-1.98,2.36-3.04,6.48-3.04s6.44,1.06,6.44,3.04ZM410.68,169.03h9.92v-.96h-9.92v-1.84h12.36v4.52h-9.92v1.08h10.4v1.88h-12.84v-4.68ZM416.92,160.55c2.62,0,3.88-.34,3.88-1.2,0-.8-1.26-1.22-3.88-1.24-2.62.02-3.88.44-3.88,1.24,0,.86,1.26,1.2,3.88,1.2Z"/>
        <path class="cls-2" d="M434.32,157.31c2.68,0,4.66,2.44,4.68,6.32-.02,3.9-2,6.36-4.68,6.36s-4.72-2.46-4.72-6.36,2-6.32,4.72-6.32ZM434.32,167.71c1.34,0,2.26-1.42,2.28-4.08-.02-2.64-.94-4.08-2.28-4.08s-2.32,1.44-2.32,4.08.94,4.08,2.32,4.08ZM443.96,173.87h-2.52v-17.84h2.52v17.84Z"/>
        <path class="cls-2" d="M461.8,166.47h-16.24v-2h3.68v-2.12c-1.32-.56-2.06-1.46-2.04-2.6-.02-2.16,2.52-3.44,6.48-3.44s6.44,1.28,6.44,3.44c0,1.16-.76,2.06-2.08,2.62v2.1h3.76v2ZM453.64,167.39c3.86,0,6.18,1.14,6.2,3.2-.02,2.1-2.34,3.22-6.2,3.2-3.88.02-6.22-1.1-6.2-3.2-.02-2.06,2.32-3.2,6.2-3.2ZM453.68,161.23c2.46-.02,3.88-.5,3.88-1.48s-1.42-1.52-3.88-1.52-3.92.52-3.88,1.52c-.04.98,1.36,1.46,3.88,1.48ZM453.64,171.95c2.42,0,3.7-.46,3.72-1.36-.02-.88-1.3-1.3-3.72-1.32-2.46.02-3.7.44-3.68,1.32-.02.9,1.22,1.36,3.68,1.36ZM455.56,164.47v-1.48c-.58.08-1.22.12-1.88.12-.7,0-1.36-.04-1.96-.12v1.48h3.84Z"/>
        <path class="cls-2" d="M462.04,157.94h4.04v-1.92h2.48v1.92h4.04v1.96h-10.56v-1.96ZM467.32,160.51c2.58.02,4.38,1.4,4.4,3.48-.02,2.02-1.82,3.38-4.4,3.36-2.6.02-4.4-1.34-4.4-3.36s1.8-3.46,4.4-3.48ZM464.6,168.31h2.52v3.2h9.68v2h-12.2v-5.2ZM467.32,165.47c1.2,0,2-.52,2-1.48,0-1.02-.8-1.56-2-1.56s-1.98.54-1.96,1.56c-.02.96.78,1.48,1.96,1.48ZM476.16,161.51h2.4v2.04h-2.4v5.8h-2.52v-13.28h2.52v5.44Z"/>
        <path class="cls-2" d="M487.32,157.18c2.72,0,4.84,1.88,4.84,4.52s-2.12,4.52-4.84,4.52-4.88-1.9-4.88-4.52,2.16-4.52,4.88-4.52ZM487.32,164.07c1.38-.02,2.42-.9,2.44-2.36-.02-1.48-1.06-2.34-2.44-2.36-1.34.02-2.44.88-2.44,2.36s1.1,2.34,2.44,2.36ZM484.88,167.63h2.52v3.88h9.68v2h-12.2v-5.88ZM496.44,161.15h2.4v2.08h-2.4v5.76h-2.52v-12.92h2.52v5.08Z"/>
        <path class="cls-2" d="M503,159.51v-.24h-3.6v-2h9.64v2h-3.52v.28c0,2.06,1.26,4.26,4.08,5.2l-1.24,1.96c-1.96-.66-3.32-1.94-4.08-3.54-.78,1.78-2.2,3.2-4.28,3.9l-1.28-2.04c2.92-.9,4.26-3.22,4.28-5.52ZM502,167.91h2.48v3.6h9.72v2h-12.2v-5.6ZM513.8,169.03h-2.48v-6.36h-2.92v-2h2.92v-4.6h2.48v12.96Z"/>
        <path class="cls-2" d="M522.16,164.93v-3.5h2.48v3.42c1.76-.08,3.58-.22,5.24-.46l.16,1.8c-3.72.68-7.88.74-10.96.76l-.24-2c1,0,2.14,0,3.32-.02ZM529.04,158.47c0,1.22,0,2.98-.4,5.2l-2.44-.24c.32-1.7.4-2.98.42-4.04h-6.7v-2.04h9.12v1.12ZM521.48,168.15h2.48v3.36h10v2h-12.48v-5.36ZM530.84,156.02h2.56v5.44h2.16v2.08h-2.16v5.8h-2.56v-13.32Z"/>
        <path class="cls-2" d="M538.8,160.83v-.96h-2.92v-2h8v2h-2.68v.96c-.02,2.94.92,5.92,3.52,7.4l-1.48,1.84c-1.6-.94-2.62-2.52-3.22-4.42-.62,2.06-1.68,3.82-3.3,4.82l-1.52-1.84c2.62-1.6,3.6-4.8,3.6-7.8ZM542.64,162.15h2.32v-5.8h2.32v16.64h-2.32v-8.84h-2.32v-2ZM550.92,173.83h-2.36v-17.8h2.36v17.8Z"/>
        <path class="cls-2" d="M554.12,176.15h-2.08l.96-5.56h2.8l-1.68,5.56Z"/>
        <path class="cls-2" d="M0,193.31h16.24v1.92H0v-1.92ZM1.88,199.03h9.92v-.92H1.88v-1.84h12.36v4.52H4.32v1.04h10.4v1.88H1.88v-4.68ZM4.52,187.59h7.16v-1.24h2.48v5.96H2.08v-5.96h2.44v1.24ZM11.68,190.47v-1.08h-7.16v1.08h7.16Z"/>
        <path class="cls-2" d="M16.48,196.71h16.24v1.96h-6.92v5.2h-2.48v-5.2h-6.84v-1.96ZM30.88,191.87h-9.96v1.52h10.36v1.96h-12.88v-5.32h9.92v-1.44h-9.96v-2h12.52v5.28Z"/>
        <path class="cls-2" d="M49.2,198.63h-6.92v5.2h-2.48v-5.2h-6.84v-2.04h16.24v2.04ZM35,186.74h12.28v1.96h-9.84v1.32h9.48v1.92h-9.48v1.36h10.04v1.96h-12.48v-8.52Z"/>
        <path class="cls-2" d="M49.44,199.59h16.28v2.04h-16.28v-2.04ZM65.12,194.47l-1.08,2.08c-3.1-.62-5.4-2.36-6.56-4.64-1.16,2.26-3.48,4-6.56,4.64l-1.08-2.08c3.98-.7,6.28-3.5,6.32-6.08v-1.28h2.64v1.28c0,2.62,2.3,5.4,6.32,6.08Z"/>
        <path class="cls-2" d="M82.16,195.87h-16.24v-1.84h16.24v1.84ZM67.76,196.75h12.48v4.2h-9.96v1h10.48v1.72h-12.96v-4.28h9.96v-.92h-10v-1.72ZM67.92,188.94h9.8v-.88h-9.8v-1.68h12.28v4.16h-9.8v.96h10.12v1.68h-12.6v-4.24Z"/>
        <path class="cls-2" d="M102.44,197.15h-16.28v-1.92h6.88v-1.12h-4.84v-7.64h12.32v1.92h-9.84v1h9.44v1.8h-9.44v1.04h10v1.88h-5.16v1.12h6.92v1.92ZM94.28,197.99c3.94-.02,6.18,1.04,6.2,2.92-.02,1.9-2.26,2.92-6.2,2.92s-6.22-1.02-6.2-2.92c-.02-1.88,2.24-2.94,6.2-2.92ZM94.28,201.99c2.52,0,3.7-.34,3.72-1.08-.02-.76-1.2-1.1-3.72-1.08-2.54-.02-3.74.32-3.72,1.08-.02.74,1.18,1.08,3.72,1.08Z"/>
        <path class="cls-2" d="M102.68,187.94h4.04v-1.92h2.48v1.92h4.04v1.96h-10.56v-1.96ZM107.96,190.51c2.58.02,4.38,1.4,4.4,3.48-.02,2.02-1.82,3.38-4.4,3.36-2.6.02-4.4-1.34-4.4-3.36s1.8-3.46,4.4-3.48ZM105.24,198.31h2.52v3.2h9.68v2h-12.2v-5.2ZM107.96,195.47c1.2,0,2-.52,2-1.48,0-1.02-.8-1.56-2-1.56s-1.98.54-1.96,1.56c-.02.96.78,1.48,1.96,1.48ZM116.8,191.51h2.4v2.04h-2.4v5.8h-2.52v-13.28h2.52v5.44Z"/>
        <path class="cls-2" d="M127.2,187.78v-1.36h2.56v1.36c0,2.18,1.3,4.24,4.2,5.08l-1.2,1.92c-2.06-.6-3.46-1.84-4.26-3.44-.8,1.74-2.26,3.12-4.38,3.76l-1.24-1.96c2.98-.9,4.3-3.14,4.32-5.36ZM125.92,195.83h11.92v4.8h-9.44v1.12h9.92v1.96h-12.36v-4.92h9.4v-1.04h-9.44v-1.92ZM137.84,195.07h-2.48v-9.04h2.48v9.04Z"/>
        <path class="cls-2" d="M150.88,197.87l-1.48,2c-2.04-.92-3.46-2.68-4.26-4.88-.8,2.4-2.26,4.34-4.42,5.32l-1.52-2.08c3.12-1.3,4.62-4.7,4.64-8.16v-2.64h2.52v2.64c0,3.28,1.48,6.54,4.52,7.8ZM151.8,186.02h2.52v17.84h-2.52v-17.84Z"/>
        <path class="cls-2" d="M162.44,189.43h-5.84v-2.04h8.6c-.02,4.8-3.02,8.16-8.36,9.68l-1.04-2c3.98-1.1,6.22-3.14,6.64-5.64ZM158.48,197.47h2.52v4.04h9.64v2h-12.16v-6.04ZM170.04,191.03h2.4v2.04h-2.4v5.72h-2.52v-12.76h2.52v5Z"/>
        <path class="cls-2" d="M191.2,196.31h-2.48v-1.76h-4v-1.96h4v-1.72h-3.82c-1.1,2.82-3.64,4.76-7.54,5.8l-1-1.92c4.08-1.1,6.1-3.06,6.46-5.48h-5.5v-2h8.2c0,.58-.04,1.12-.12,1.64h3.32v-2.84h2.48v10.24ZM185.28,196.51c3.6.02,6.04,1.4,6.04,3.6s-2.44,3.64-6.04,3.64-6.1-1.4-6.08-3.64c-.02-2.2,2.42-3.58,6.08-3.6ZM185.28,201.79c2.2-.02,3.54-.58,3.56-1.68-.02-1.08-1.36-1.66-3.56-1.64-2.26-.02-3.6.56-3.6,1.64s1.34,1.66,3.6,1.68Z"/>
        <path class="cls-2" d="M192.68,199.63h5.8v-6.12h2.48v6.12h7.96v2.04h-16.24v-2.04ZM207.32,189.26c0,2.22,0,4.72-.68,8.52l-2.52-.28c.66-3.34.7-5.82.72-7.92h-10.48v-2h12.96v1.68Z"/>
        <path class="cls-2" d="M222.56,194.59h-8.68v-7.48h8.68v7.48ZM220.48,198.95h-4.96v-1.84h5.04v-1.48h2.52v1.48h5.04v1.84h-4.96c.28,1.24,2.14,2.62,5.68,2.96l-.84,1.88c-2.98-.28-5.08-1.36-6.16-2.76-1.08,1.42-3.18,2.46-6.16,2.76l-.88-1.88c3.56-.3,5.44-1.7,5.68-2.96ZM220.08,192.67v-3.6h-3.76v3.6h3.76ZM225.36,186.02h2.48v10.12h-2.48v-10.12Z"/>
        <path class="cls-2" d="M243.8,189.59h-10.56v-1.96h4.04v-1.68h2.48v1.68h4.04v1.96ZM238.52,190.19c2.58,0,4.38,1.32,4.4,3.28-.02,1.94-1.82,3.26-4.4,3.24-2.58.02-4.4-1.3-4.4-3.24s1.82-3.28,4.4-3.28ZM235.4,197.95h11.96v5.88h-2.52v-3.88h-9.44v-2ZM238.52,194.83c1.2,0,2-.46,2-1.36s-.8-1.42-2-1.44c-1.18.02-1.98.52-1.96,1.44-.02.9.78,1.36,1.96,1.36ZM244.84,186.02h2.52v4.64h2.4v2.04h-2.4v4.48h-2.52v-11.16Z"/>
        <path class="cls-2" d="M249.72,193.83h16.24v2h-16.24v-2ZM256.56,186.82v-.6h2.56v.6c0,1.78,2.04,3.8,6,4.24l-.88,1.96c-3.06-.38-5.28-1.66-6.4-3.38-1.16,1.72-3.38,3-6.4,3.38l-.92-1.96c3.98-.48,6.02-2.42,6.04-4.24ZM254.08,198.23h7.32v-1.52h2.48v6.92h-12.24v-6.92h2.44v1.52ZM261.4,201.67v-1.56h-7.32v1.56h7.32Z"/>
        <path class="cls-2" d="M281.44,197.87l-1.48,2c-2.04-.92-3.46-2.68-4.26-4.88-.8,2.4-2.26,4.34-4.42,5.32l-1.52-2.08c3.12-1.3,4.62-4.7,4.64-8.16v-2.64h2.52v2.64c0,3.28,1.48,6.54,4.52,7.8ZM282.36,186.02h2.52v17.84h-2.52v-17.84Z"/>
        <path class="cls-2" d="M286.48,199.59h16.28v2.04h-16.28v-2.04ZM302.16,194.47l-1.08,2.08c-3.1-.62-5.4-2.36-6.56-4.64-1.16,2.26-3.48,4-6.56,4.64l-1.08-2.08c3.98-.7,6.28-3.5,6.32-6.08v-1.28h2.64v1.28c0,2.62,2.3,5.4,6.32,6.08Z"/>
        <path class="cls-2" d="M310.44,189.1h-4.36v1.44h3.72v1.88h-3.72v1.56c1.92-.02,3.34-.12,4.96-.4l.28,1.96c-2.06.36-3.76.42-6.44.4h-1.2v-8.84h6.76v2ZM306.12,197.35h12.12v6.28h-12.12v-6.28ZM315.76,201.63v-2.32h-7.16v2.32h7.16ZM310.56,190.31h1.8v-4h2.36v10.24h-2.36v-4.24h-1.8v-2ZM315.88,186.02h2.36v10.64h-2.36v-10.64Z"/>
        <path class="cls-2" d="M339.48,196.19h-16.24v-2h16.24v2ZM331.32,197.27c3.86,0,6.18,1.18,6.2,3.28-.02,2.1-2.34,3.28-6.2,3.28s-6.22-1.18-6.2-3.28c-.02-2.1,2.32-3.28,6.2-3.28ZM325.2,186.54h12.36v1.96h-9.88v2.44h9.96v2h-12.44v-6.4ZM331.32,201.95c2.42-.02,3.7-.46,3.72-1.4-.02-.9-1.3-1.36-3.72-1.36s-3.7.46-3.68,1.36c-.02.94,1.22,1.38,3.68,1.4Z"/>
        <path class="cls-2" d="M339.72,193.23h16.24v1.96h-16.24v-1.96ZM354.28,189.35c0,1.96-2.36,3.04-6.44,3.04s-6.5-1.08-6.48-3.04c-.02-1.98,2.36-3.04,6.48-3.04s6.44,1.06,6.44,3.04ZM341.6,199.03h9.92v-.96h-9.92v-1.84h12.36v4.52h-9.92v1.08h10.4v1.88h-12.84v-4.68ZM347.84,190.55c2.62,0,3.88-.34,3.88-1.2,0-.8-1.26-1.22-3.88-1.24-2.62.02-3.88.44-3.88,1.24,0,.86,1.26,1.2,3.88,1.2Z"/>
        <path class="cls-2" d="M376.24,197.15h-16.28v-1.92h6.88v-1.12h-4.84v-7.64h12.32v1.92h-9.84v1h9.44v1.8h-9.44v1.04h10v1.88h-5.16v1.12h6.92v1.92ZM368.08,197.99c3.94-.02,6.18,1.04,6.2,2.92-.02,1.9-2.26,2.92-6.2,2.92s-6.22-1.02-6.2-2.92c-.02-1.88,2.24-2.94,6.2-2.92ZM368.08,201.99c2.52,0,3.7-.34,3.72-1.08-.02-.76-1.2-1.1-3.72-1.08-2.54-.02-3.74.32-3.72,1.08-.02.74,1.18,1.08,3.72,1.08Z"/>
        <path class="cls-2" d="M385.08,190.75h-8.64v-2h3.12v-2.2h2.44v2.2h3.08v2ZM380.8,191.55c2.28,0,3.9,1.74,3.92,4.2-.02,2.5-1.64,4.24-3.92,4.24s-3.92-1.74-3.92-4.24,1.66-4.2,3.92-4.2ZM380.8,197.87c1,.02,1.7-.76,1.72-2.12-.02-1.32-.72-2.14-1.72-2.12-1.02-.02-1.74.8-1.72,2.12-.02,1.36.7,2.14,1.72,2.12ZM385.72,186.38h2.32v6.88h1.44v-7.24h2.4v17.8h-2.4v-8.56h-1.44v7.8h-2.32v-16.68Z"/>
        <path class="cls-2" d="M406.88,189.06h-3.56c.02,2.08,1.26,4.22,4.16,5.16l-1.28,1.92c-1.96-.64-3.32-1.9-4.1-3.5-.78,1.74-2.2,3.14-4.26,3.82l-1.32-1.96c2.92-.94,4.26-3.22,4.28-5.44h-3.6v-2h9.68v2ZM398.92,197.55h11.96v6.28h-2.52v-4.32h-9.44v-1.96ZM408.36,186.02h2.52v4.32h2.4v2.08h-2.4v4.36h-2.52v-10.76Z"/>
        <path class="cls-2" d="M422.78,189.99h2.98v-3.96h2.48v9.56h-2.48v-3.6h-2.96c-.48,1.94-2.3,3.28-4.6,3.28-2.72,0-4.74-1.78-4.72-4.24-.02-2.46,2-4.24,4.72-4.24,2.26,0,4.08,1.3,4.58,3.2ZM418.2,193.19c1.36,0,2.32-.84,2.32-2.16s-.96-2.16-2.32-2.16-2.36.82-2.36,2.16.98,2.16,2.36,2.16ZM416.36,196.39h2.48v1.72h6.92v-1.72h2.48v7.24h-11.88v-7.24ZM425.76,201.63v-1.6h-6.92v1.6h6.92Z"/>
        <path class="cls-2" d="M440.64,198.07l-1.4,1.96c-1.98-.9-3.38-2.72-4.16-4.84-.8,2.34-2.26,4.32-4.32,5.28l-1.44-1.96c2.96-1.38,4.46-4.68,4.48-7.6v-1.12h-3.76v-2.04h9.84v2.04h-3.6v1.12c0,2.7,1.44,5.82,4.36,7.16ZM441.24,186.02h2.52v6.8h2.6v2.08h-2.6v8.92h-2.52v-17.8Z"/>
        <path class="cls-2" d="M457.64,197.63l.2,1.8c-3.94.78-8.16.8-11.28.8l-.28-2c3.18-.02,7.58-.06,11.36-.6ZM456.88,191.59c0,2.56-2.1,4.38-4.92,4.36-2.8.02-4.94-1.8-4.92-4.36-.02-2.54,2.12-4.36,4.92-4.36s4.92,1.82,4.92,4.36ZM451.96,193.83c1.42-.02,2.5-.82,2.52-2.24-.02-1.38-1.1-2.2-2.52-2.2s-2.46.82-2.44,2.2c-.02,1.42,1.04,2.22,2.44,2.24ZM458.68,186.02h2.48v17.84h-2.48v-17.84Z"/>
        <path class="cls-2" d="M471.48,187.18c2.72,0,4.84,1.88,4.84,4.52s-2.12,4.52-4.84,4.52-4.88-1.9-4.88-4.52,2.16-4.52,4.88-4.52ZM471.48,194.07c1.38-.02,2.42-.9,2.44-2.36-.02-1.48-1.06-2.34-2.44-2.36-1.34.02-2.44.88-2.44,2.36s1.1,2.34,2.44,2.36ZM469.04,197.63h2.52v3.88h9.68v2h-12.2v-5.88ZM480.6,191.15h2.4v2.08h-2.4v5.76h-2.52v-12.92h2.52v5.08Z"/>
        <path class="cls-2" d="M487.16,189.51v-.24h-3.6v-2h9.64v2h-3.52v.28c0,2.06,1.26,4.26,4.08,5.2l-1.24,1.96c-1.96-.66-3.32-1.94-4.08-3.54-.78,1.78-2.2,3.2-4.28,3.9l-1.28-2.04c2.92-.9,4.26-3.22,4.28-5.52ZM486.16,197.91h2.48v3.6h9.72v2h-12.2v-5.6ZM497.96,199.03h-2.48v-6.36h-2.92v-2h2.92v-4.6h2.48v12.96Z"/>
        <path class="cls-2" d="M499.44,193.23h16.24v1.96h-16.24v-1.96ZM514,189.35c0,1.96-2.36,3.04-6.44,3.04s-6.5-1.08-6.48-3.04c-.02-1.98,2.36-3.04,6.48-3.04s6.44,1.06,6.44,3.04ZM501.32,199.03h9.92v-.96h-9.92v-1.84h12.36v4.52h-9.92v1.08h10.4v1.88h-12.84v-4.68ZM507.56,190.55c2.62,0,3.88-.34,3.88-1.2,0-.8-1.26-1.22-3.88-1.24-2.62.02-3.88.44-3.88,1.24,0,.86,1.26,1.2,3.88,1.2Z"/>
        <path class="cls-2" d="M526.14,189.22h-5.7v-2h8.44c0,4.74-2.98,8.06-8.28,9.52l-1-2c3.92-1.06,6.16-3.06,6.54-5.52ZM528.04,196.59c3.6-.02,5.98,1.4,6,3.6-.02,2.26-2.4,3.66-6,3.64-3.62.02-6.06-1.38-6.04-3.64-.02-2.2,2.42-3.62,6.04-3.6ZM528.04,201.91c2.2,0,3.52-.62,3.52-1.72s-1.32-1.68-3.52-1.68-3.58.6-3.56,1.68c-.02,1.1,1.32,1.72,3.56,1.72ZM533.84,190.22h2.4v2.04h-2.4v4.12h-2.52v-10.36h2.52v4.2Z"/>
        <path class="cls-2" d="M540.36,198.77v-1.54c-1.88-.36-3.1-1.56-3.08-3.2-.02-2,1.78-3.34,4.36-3.36,2.56.02,4.38,1.36,4.4,3.36-.02,1.64-1.28,2.86-3.16,3.22v1.44c1.42-.08,2.84-.2,4.16-.38l.16,1.8c-3.8.72-7.88.74-10.88.72l-.32-2c1.3,0,2.78-.02,4.36-.06ZM536.36,188.02h4v-1.88h2.52v1.88h4v1.96h-10.52v-1.96ZM541.64,195.47c1.2,0,2-.5,2-1.44s-.8-1.44-2-1.44-2,.52-2,1.44.8,1.44,2,1.44ZM550.44,193.27h2.32v2.08h-2.32v8.48h-2.52v-17.8h2.52v7.24Z"/>
        <path class="cls-2" d="M552.68,187.63h4.04v-1.72h2.48v1.72h4.04v1.96h-10.56v-1.96ZM557.96,190.07c2.58.02,4.38,1.26,4.4,3.16-.02,1.88-1.82,3.14-4.4,3.12-2.62.02-4.4-1.24-4.4-3.12s1.78-3.14,4.4-3.16ZM555.16,197.15h2.48v1.36h6.64v-1.36h2.52v6.48h-11.64v-6.48ZM557.96,194.55c1.2,0,2-.46,2-1.32s-.8-1.34-2-1.32c-1.18-.02-1.98.48-1.96,1.32-.02.86.78,1.32,1.96,1.32ZM564.28,201.67v-1.24h-6.64v1.24h6.64ZM566.8,190.35h2.4v2.04h-2.4v4.08h-2.52v-10.44h2.52v4.32Z"/>
        <path class="cls-2" d="M570.12,187.74h2.48v9.56c2.4-.04,4.98-.26,7.6-.76l.28,2.04c-3.1.66-6.04.86-8.8.84h-1.56v-11.68ZM584.12,203.83h-2.48v-17.8h2.48v17.8Z"/>
        <path class="cls-2" d="M586.36,187.7h8.32v2h-5.84v7.8c2.58-.04,4.7-.16,7.04-.56l.28,2.08c-2.74.46-5.16.54-8.32.52h-1.48v-11.84ZM599.68,192.67h2.6v2h-2.6v9.2h-2.52v-17.84h2.52v6.64Z"/>
        <path class="cls-2" d="M602.8,200.55c-.04-.88.72-1.62,1.64-1.6.86-.02,1.62.72,1.64,1.6-.02.92-.78,1.66-1.64,1.64-.92.02-1.68-.72-1.64-1.64Z"/>
        <path class="cls-2" d="M607.48,193.23h-2.08v-5.36h2.08v5.36ZM608.96,187.86h2.08v5.36h-2.08v-5.36Z"/>
      </g>
    </g>
  </g>
</svg>