<?xml version="1.0" encoding="UTF-8"?>
<svg id="Layer_1" xmlns="http://www.w3.org/2000/svg" version="1.1" viewBox="0 0 862 266.4">
  <!-- Generator: Adobe Illustrator 29.0.1, SVG Export Plug-In . SVG Version: 2.1.0 Build 192)  -->
  <defs>
    <style>
      .st0 {
        fill: #170c2d;
      }

      .st1 {
        fill: #fff;
      }
    </style>
  </defs>
  <g>
    <path class="st1" d="M321.2,94.3h-48.8v-5.8h48.8v5.8ZM277.9,97.9h37.3v16.2h-7.6v-10.3h-29.8v-5.9h.1ZM278.5,62.1h37v5.8h-29.5v2.9h28.3v5.5h-28.3v3.2h30v5.6h-37.4v-23h-.1Z"/>
    <path class="st1" d="M353.4,74.8h-31.3v-6h11.9v-7.2h7.6v7.2h11.9v6h-.1ZM337.8,77.8c7.3,0,12.7,5.3,12.7,12.7s-5.5,12.7-12.7,12.6c-7.4,0-13-5.3-13-12.6s5.5-12.8,13-12.7ZM337.8,96.9c3.4,0,5.9-2.4,5.9-6.4s-2.5-6.5-5.9-6.5-6,2.5-6,6.5,2.6,6.4,6,6.4ZM352.3,81.9h7.3v-21.1h7.3v53.4h-7.3v-26.2h-7.3v-6.1Z"/>
    <path class="st1" d="M411.6,86.4h-26v-22.4h26v22.4ZM405.3,99.5h-14.9v-5.5h15.1v-4.4h7.6v4.4h15.1v5.5h-14.9c.8,3.7,6.4,7.9,17,8.9l-2.5,5.6c-8.9-.8-15.2-4.1-18.5-8.3-3.2,4.3-9.5,7.4-18.5,8.3l-2.6-5.6c10.7-.9,16.3-5.1,17-8.9h0ZM404.1,80.7v-10.8h-11.3v10.8h11.3ZM420,60.8h7.4v30.4h-7.4s0-30.4,0-30.4Z"/>
    <path class="st1" d="M464.8,72.3h-18.2v-5.9h25.8c0,16.1-5.6,29.6-24.7,38.6l-3.8-6c13.7-6.5,19.8-14.9,21-26.8h0ZM488.5,114.1h-7.6v-53.4h7.6v53.4Z"/>
    <path class="st1" d="M493,81.7h48.7v5.9h-20.8v3.6h14.8v13.7h-29.8v3.2h31.2v5.6h-38.5v-14.2h29.8v-2.8h-29.8v-5.6h14.9v-3.6h-20.5v-5.9h0ZM539.2,73.9l-2.4,5.6c-9.3-1.1-16.1-4.6-19.5-9.5-3.4,4.9-10.2,8.4-19.4,9.5l-2.5-5.6c12-1.3,18.1-6.5,18.1-11.8v-1.1h7.7v1.1c0,5.3,6.1,10.5,18,11.8Z"/>
    <path class="st1" d="M568,80.5h-16.1v5.8c7.9,0,12.7-.3,18.1-1.3l.6,6c-6.2,1.1-11.8,1.2-22.1,1.2h-4v-17.2h16v-5.3h-16.1v-5.9h23.5v16.7h0ZM550.6,96h36.8v18.1h-7.4v-12.1h-29.4v-6h0ZM571.2,79.6h8.9v-5.4h-8.9v-5.9h8.9v-7.4h7.4v32.9h-7.4v-8.3h-8.9s0-5.9,0-5.9Z"/>
  </g>
  <g>
    <path class="st1" d="M34.5,176.7h-6.9v5.8h-2.5v-5.8h-6.8v-2h16.2v2ZM26.3,165.3c3.8,0,6.5,1.6,6.5,4s-2.7,4-6.5,4-6.5-1.5-6.4-4c0-2.5,2.6-4,6.4-4ZM26.3,171.4c2.4,0,3.9-.7,3.9-2s-1.5-2-3.9-2-3.9.7-3.9,2,1.5,2,3.9,2Z"/>
    <path class="st1" d="M35.7,171.1h5.9v-2.9h-5.9v-2h8.4v6.8h-5.9v3.3c2.7,0,5-.2,7.6-.6l.2,2c-2.9.5-5.5.6-8.8.6h-1.6v-7.3h.1ZM49.7,182.6h-2.5v-17.8h2.5v17.8Z"/>
    <path class="st1" d="M51.2,173.5h16.2v2h-16.2v-2ZM53.1,176.9h2.5v3.3h10.2v2h-12.7s0-5.3,0-5.3ZM65.7,171.6h-12.4v-6.2h2.5v4.2h9.9v2h0Z"/>
    <path class="st1" d="M81,168.7h3v-4h2.5v9.6h-2.5v-3.6h-3c-.5,1.9-2.3,3.3-4.6,3.3s-4.7-1.8-4.7-4.2,2-4.2,4.7-4.2,4.1,1.3,4.6,3.2h0ZM76.4,171.9c1.4,0,2.3-.8,2.3-2.2s-1-2.2-2.3-2.2-2.4.8-2.4,2.2,1,2.2,2.4,2.2ZM74.6,175.1h2.5v1.7h6.9v-1.7h2.5v7.2h-11.9v-7.2ZM84,180.3v-1.6h-6.9v1.6h6.9Z"/>
    <path class="st1" d="M93.2,168.9h-4.5v-2h7c0,.9,0,1.8-.2,2.6h1.8v-4.3h2.4v16.6h-2.4v-5.8h-2.5v-2h2.5v-2.4h-2.2c-.8,2.9-2.6,5.4-6,7.4l-1.4-1.7c3.6-2.1,5.2-4.7,5.5-8.2h0v-.2ZM103.4,182.5h-2.3v-17.8h2.3v17.8Z"/>
    <path class="st1" d="M108.5,166c2.1,0,3.6,2,3.9,5.3h1.4v-6.3h2.4v16.7h-2.4v-8.4h-1.4c-.2,3.5-1.7,5.6-3.9,5.6s-3.9-2.4-3.9-6.4,1.5-6.4,3.9-6.4h0ZM108.5,176.5c1,0,1.6-1.3,1.6-4.1s-.6-4.1-1.6-4.1-1.6,1.4-1.6,4.1.6,4.1,1.6,4.1ZM119.8,182.5h-2.4v-17.8h2.4v17.8Z"/>
    <path class="st1" d="M132,176.7l-1.5,2c-2-1-3.3-2.7-4-4.9-.8,2.3-2.1,4.3-4.2,5.3l-1.6-2c3-1.4,4.4-4.8,4.4-8.2v-2.6h2.5v2.6c0,3.3,1.4,6.6,4.3,7.9h0ZM130,170.3h3.5v-5.6h2.4v17.8h-2.4v-10.2h-3.5v-2h0Z"/>
    <path class="st1" d="M147.9,168.6h-5.9v-2h8.4c0,5.3-2.1,9.9-8,12.8l-1.4-1.9c4.2-2.1,6.5-5,6.9-8.9h0ZM155.2,171.6h2.5v2h-2.5v8.9h-2.5v-17.8h2.5v6.8h0Z"/>
    <path class="st1" d="M167.8,167.9h-3.6c0,2.1,1.3,4.1,4.1,4.9l-1.2,2c-2-.6-3.3-1.8-4.1-3.3-.8,1.8-2.2,3.2-4.4,3.9l-1.2-2c2.9-.9,4.3-3.2,4.3-5.5h-3.6v-2h9.7v2h0ZM166,175.7c3.7,0,6,1.3,6,3.4s-2.3,3.4-6,3.4-6.1-1.3-6.1-3.4,2.3-3.5,6.1-3.4ZM166,180.6c2.3,0,3.5-.5,3.5-1.5s-1.2-1.5-3.5-1.5-3.6.5-3.6,1.5,1.3,1.5,3.6,1.5ZM169.3,164.7h2.5v4.2h2.4v2h-2.4v4.4h-2.5v-10.6h0Z"/>
    <path class="st1" d="M183,165.7c2.8,0,4.8,1.8,4.8,4.3s-2.1,4.3-4.8,4.2c-2.8,0-4.9-1.7-4.9-4.2s2.1-4.3,4.9-4.3ZM180.2,180.3h2.3v-2.9h-2.2v-2h12v2h-2.2v2.9h2.4v2h-12.4v-2h0ZM183,172.1c1.4,0,2.4-.8,2.4-2.2s-1.1-2.2-2.4-2.2-2.4.8-2.4,2.2,1.1,2.2,2.4,2.2ZM187.8,180.3v-2.9h-2.8v2.9h2.8ZM192.1,168.7h2.4v2h-2.4v4h-2.5v-9.9h2.5v3.9Z"/>
    <path class="st1" d="M205.2,173.3l-1.4,2c-1.9-.7-3.2-2-3.9-3.7-.8,1.9-2.2,3.3-4.2,4.1l-1.4-2c3-1,4.3-3.4,4.3-6v-1.9h2.5v2c0,2.3,1.2,4.6,4,5.5h0ZM197.6,176.5h2.5v3.7h9.7v2h-12.2v-5.7h0ZM203.6,168.6h3.4v-3.8h2.5v13.1h-2.5v-7.3h-3.4v-2h0Z"/>
    <path class="st1" d="M221.8,168.6h-6.1v-2h8.6c0,5.4-1.9,9.9-8.2,12.9l-1.3-2c4.6-2.2,6.6-5,7-8.9ZM229.7,182.5h-2.5v-17.8h2.5v17.8Z"/>
    <path class="st1" d="M231.2,171.7h16.2v2h-6.9v1.2h4.9v4.6h-9.9v1.1h10.4v1.9h-12.8v-4.7h9.9v-.9h-9.9v-1.9h5v-1.2h-6.8v-2h0ZM246.6,169.1l-.8,1.9c-3.1-.4-5.4-1.5-6.5-3.2-1.1,1.6-3.4,2.8-6.5,3.2l-.8-1.9c4-.4,6-2.2,6-3.9v-.4h2.6v.4c0,1.8,2,3.5,6,3.9h0Z"/>
    <path class="st1" d="M256.2,171.3h-5.4v1.9c2.6,0,4.2-.1,6-.4l.2,2c-2.1.4-3.9.4-7.4.4h-1.3v-5.7h5.3v-1.8h-5.4v-2h7.8v5.6h.2ZM250.4,176.5h12.3v6h-2.5v-4h-9.8v-2h0ZM257.2,171h3v-1.8h-3v-2h3v-2.5h2.5v11h-2.5v-2.8h-3v-2h0Z"/>
    <path class="st1" d="M267.3,176.9v-5.3h2.4v5.2c1.7,0,3.5-.2,5.2-.4l.2,1.9c-3.7.6-7.7.7-10.8.6l-.2-2h3.3-.1ZM274.2,168c0,1.7,0,3.8-.5,6.8l-2.4-.2c.4-2.6.4-4.5.4-6h-6.7v-2h9.2v1.4h0ZM275.7,164.7h2.5v7.2h2.4v2.1h-2.4v8.6h-2.5v-17.8h0Z"/>
    <path class="st1" d="M300.7,175.9h-16.3v-1.9h16.3v1.9ZM286.2,177.1h12.4v5.4h-2.5v-3.4h-9.9v-2h0ZM286.4,165.2h12.3v1.9h-9.8v1h9.4v1.8h-9.4v1.1h10v1.9h-12.5v-7.7h0Z"/>
    <path class="st1" d="M311.4,169.4h-10.4v-2h4v-2.4h2.5v2.4h4v2h-.1ZM306.2,170.4c2.4,0,4.2,1.8,4.2,4.2s-1.8,4.2-4.2,4.2-4.3-1.8-4.3-4.2,1.8-4.3,4.3-4.2ZM306.2,176.8c1.1,0,2-.8,2-2.1s-.8-2.2-2-2.2-2,.8-2,2.2.9,2.1,2,2.1ZM311,171.8h2.4v-7h2.4v17.8h-2.4v-8.7h-2.4v-2h0Z"/>
    <path class="st1" d="M333.7,180.5h-16.3v-2h6.9v-2.7h-5v-6h10v-2h-10.1v-2h12.6v5.9h-10v2h10.4v2h-5.5v2.7h7v2h0Z"/>
    <path class="st1" d="M342.7,165.9c2.7,0,4.8,1.9,4.8,4.5s-2.1,4.5-4.8,4.5-4.9-1.9-4.9-4.5,2.2-4.5,4.9-4.5ZM342.7,172.8c1.4,0,2.4-.9,2.4-2.4s-1.1-2.3-2.4-2.4c-1.3,0-2.4.9-2.4,2.4s1.1,2.3,2.4,2.4ZM340.2,176.3h2.5v3.9h9.7v2h-12.2v-5.9h0ZM351.8,169.9h2.4v2.1h-2.4v5.8h-2.5v-12.9h2.5v5.1h0Z"/>
    <path class="st1" d="M358.4,168.2v-.2h-3.6v-2h9.6v2h-3.5v.3c0,2.1,1.3,4.3,4.1,5.2l-1.2,2c-2-.7-3.3-1.9-4.1-3.5-.8,1.8-2.2,3.2-4.3,3.9l-1.3-2c2.9-.9,4.3-3.2,4.3-5.5h0v-.2ZM357.4,176.6h2.5v3.6h9.7v2h-12.2v-5.6ZM369.2,177.7h-2.5v-6.4h-2.9v-2h2.9v-4.6h2.5v13Z"/>
    <path class="st1" d="M377.5,173.6v-3.5h2.5v3.4c1.8,0,3.6-.2,5.2-.5l.2,1.8c-3.7.7-7.9.7-11,.8l-.2-2h3.3ZM384.4,167.2c0,1.2,0,3-.4,5.2l-2.4-.2c.3-1.7.4-3,.4-4h-6.7v-2h9.1v1.1h0ZM376.8,176.9h2.5v3.4h10v2h-12.5v-5.4ZM386.2,164.7h2.6v5.4h2.2v2.1h-2.2v5.8h-2.6v-13.3h0Z"/>
    <path class="st1" d="M391.9,171.1h5.9v-2.9h-5.9v-2h8.4v6.8h-5.9v3.3c2.7,0,5-.2,7.6-.6l.2,2c-2.9.5-5.5.6-8.8.6h-1.6v-7.3h0ZM405.9,182.6h-2.5v-17.8h2.5v17.8Z"/>
    <path class="st1" d="M420.5,172h6.9v2h-16.2v-2h6.8v-1.9h2.5v1.9h0ZM418,165.3v-.4h2.6v.4c0,1.9,1.9,3.6,6,4l-.9,1.9c-3-.4-5.3-1.4-6.4-3.1-1.1,1.6-3.4,2.7-6.4,3.1l-.8-1.9c4.1-.4,6-2.1,6-4h-.1ZM413.1,177.7h9.9v-1h-9.9v-1.9h12.4v4.6h-9.9v1h10.4v1.9h-12.8v-4.7h-.1Z"/>
    <path class="st1" d="M427.7,175.4h16.2v2h-6.9v5.2h-2.5v-5.2h-6.8v-2h0ZM442.1,170.6h-10v1.5h10.4v2h-12.9v-5.3h9.9v-1.4h-10v-2h12.5v5.3h.1Z"/>
    <path class="st1" d="M454.8,173.7l-1.4,2c-1.9-.7-3.2-2.1-3.9-3.9-.8,1.9-2.1,3.3-4.1,4.1l-1.4-2c2.9-1,4.2-3.5,4.2-6.2v-2h2.5v2c0,2.5,1.2,4.9,4,5.9h0ZM447.3,176.7h2.5v3.5h9.7v2h-12.2v-5.5h0ZM453.6,170.5h3v-1.4h-3v-2h3v-2.3h2.5v13.2h-2.5v-5.4h-3v-2h0Z"/>
    <path class="st1" d="M460.6,171.9h16.2v2h-16.2v-2ZM475.2,168.1c0,2-2.4,3-6.4,3s-6.5-1.1-6.5-3,2.4-3,6.5-3,6.4,1.1,6.4,3ZM462.5,177.7h9.9v-1h-9.9v-1.8h12.4v4.5h-9.9v1.1h10.4v1.9h-12.8v-4.7h-.1ZM468.8,169.3c2.6,0,3.9-.3,3.9-1.2s-1.3-1.2-3.9-1.2-3.9.4-3.9,1.2,1.3,1.2,3.9,1.2Z"/>
    <path class="st1" d="M491.6,173.3l-1.4,2c-1.9-.7-3.2-2-3.9-3.7-.8,1.9-2.2,3.3-4.2,4.1l-1.4-2c3-1,4.3-3.4,4.3-6v-1.9h2.5v2c0,2.3,1.2,4.6,4,5.5h.1ZM484.1,176.5h2.5v3.7h9.7v2h-12.2v-5.7h0ZM490.1,168.6h3.4v-3.8h2.5v13.1h-2.5v-7.3h-3.4v-2h0Z"/>
    <path class="st1" d="M511.9,174.7h-5.2v3.8h7v2h-16.3v-2h6.9v-3.8h-5v-8.7h12.4v2h-9.9v4.7h10v2h.1Z"/>
    <path class="st1" d="M513.9,166.3h4v-1.7h2.5v1.7h4v2h-10.6v-2h0ZM519.2,168.8c2.6,0,4.4,1.3,4.4,3.2s-1.8,3.1-4.4,3.1-4.4-1.2-4.4-3.1,1.8-3.1,4.4-3.2ZM516.4,175.9h2.5v1.4h6.6v-1.4h2.5v6.5h-11.6v-6.5ZM519.2,173.3c1.2,0,2-.5,2-1.3s-.8-1.3-2-1.3-2,.5-2,1.3.8,1.3,2,1.3ZM525.5,180.4v-1.2h-6.6v1.2h6.6ZM528,169.1h2.4v2h-2.4v4.1h-2.5v-10.4h2.5v4.3h0Z"/>
    <path class="st1" d="M531.3,166.5h2.5v9.6c2.4,0,5-.3,7.6-.8l.3,2c-3.1.7-6,.9-8.8.8h-1.6v-11.7h0ZM545.3,182.5h-2.5v-17.8h2.5v17.8Z"/>
    <path class="st1" d="M547.6,166.4h8.3v2h-5.8v7.8c2.6,0,4.7-.2,7-.6l.3,2.1c-2.7.5-5.2.5-8.3.5h-1.5v-11.8h0ZM560.9,171.4h2.6v2h-2.6v9.2h-2.5v-17.8h2.5v6.6Z"/>
    <path class="st1" d="M564,179.3c0-.9.7-1.6,1.6-1.6s1.6.7,1.6,1.6-.8,1.7-1.6,1.6c-.9,0-1.7-.7-1.6-1.6Z"/>
    <path class="st1" d="M578.4,169c-2.2,0-3.7,1.7-3.6,4.6,0,3,1.4,4.7,3.7,4.7s3.2-1.1,3.2-2.9h-3v-2.2h5.9v1.8c0,3.7-2.5,6-6.1,6s-6.7-2.8-6.7-7.2,2.9-7.3,6.6-7.3,5.6,1.9,6,4.7h-3c-.4-1.3-1.4-2.1-3-2.1h0Z"/>
    <path class="st1" d="M585.8,166.6h5.5c3.2,0,5.1,2,5.1,4.8s-1.9,4.8-5.1,4.8h-2.6v4.6h-2.9v-14.2h0ZM590.8,173.8c1.7,0,2.6-1,2.6-2.4s-.8-2.4-2.6-2.4h-2.1v4.8h2.1Z"/>
    <path class="st1" d="M602.8,168.9c-1.5,0-2.3.7-2.3,1.6s1,1.5,2.2,1.8l1.3.3c2.4.5,4.2,1.8,4.2,4.1s-2,4.2-5.5,4.2-5.6-1.6-5.7-4.6h2.8c0,1.4,1.2,2.1,2.8,2.1s2.5-.7,2.6-1.8c0-1-.9-1.4-2.4-1.8l-1.5-.4c-2.4-.6-3.9-1.8-3.9-3.9s2.3-4.3,5.4-4.2c3.1,0,5.2,1.7,5.2,4.2h-2.8c0-1.1-1-1.8-2.4-1.8h0v.2Z"/>
    <path class="st1" d="M619.5,168.6h-6.1v-2h8.6c0,5.4-1.9,9.9-8.2,12.9l-1.3-2c4.6-2.2,6.6-5,7-8.9h0ZM627.4,182.5h-2.5v-17.8h2.5v17.8Z"/>
    <path class="st1" d="M629.4,166h2.5v2.6h3.6v-2.6h2.5v9h-8.6v-9ZM631.5,176.5h2.5v3.7h9.7v2h-12.2v-5.7ZM635.6,173.1v-2.6h-3.6v2.6h3.6ZM643,169.8h2.4v2h-2.4v6h-2.5v-13.1h2.5v5h0Z"/>
    <path class="st1" d="M656.8,176.3l.2,1.8c-3.9.8-8.2.8-11.3.8l-.3-2c3.2,0,7.6,0,11.4-.6h0ZM656.1,170.3c0,2.6-2.1,4.4-4.9,4.4s-4.9-1.8-4.9-4.4,2.1-4.4,4.9-4.4,4.9,1.8,4.9,4.4ZM651.2,172.5c1.4,0,2.5-.8,2.5-2.2s-1.1-2.2-2.5-2.2-2.5.8-2.4,2.2c0,1.4,1,2.2,2.4,2.2ZM657.9,164.7h2.5v17.8h-2.5v-17.8Z"/>
    <path class="st1" d="M677.1,173.5l.2,1.8c-1.5.3-3,.5-4.4.6v6.1h-2.5v-5.9c-1.6,0-3,0-4.3.1l-.3-2c3.2,0,7.6,0,11.4-.6h-.1ZM676.2,169.3c0,2.2-2,3.8-4.7,3.8s-4.7-1.6-4.7-3.8,2-3.8,4.7-3.8,4.7,1.5,4.7,3.8ZM671.5,171c1.4,0,2.3-.6,2.3-1.7s-.9-1.8-2.3-1.8-2.3.6-2.2,1.8c0,1.1.9,1.7,2.2,1.7ZM678.2,164.8h2.5v17.8h-2.5v-17.8Z"/>
    <path class="st1" d="M682.2,166.3h4v-1.7h2.4v1.7h4v2h-10.5v-2h0ZM687.4,168.9c2.5,0,4.3,1.3,4.3,3.2s-1.8,3.2-4.3,3.2-4.3-1.3-4.2-3.2c0-1.8,1.8-3.2,4.2-3.2ZM685.2,176.3h12v6.1h-12v-6.1ZM687.4,173.5c1.1,0,1.9-.5,1.9-1.4s-.7-1.3-1.9-1.3-1.9.5-1.9,1.3.7,1.4,1.9,1.4ZM694.7,180.3v-2.1h-7v2.1h7ZM697.2,175.5h-2.5v-3.5h-2.3v-2h2.3v-5.2h2.5v10.8h0Z"/>
    <path class="st1" d="M706.6,167.6h-3.6v-2h9.6v2h-3.5c0,2,1.4,4.1,4.1,4.9l-1.2,2c-2-.7-3.3-1.9-4.1-3.5-.8,1.8-2.2,3.2-4.3,3.9l-1.3-1.9c2.8-1,4.1-3.1,4.3-5.3h0ZM705.6,175.2h2.5v1.7h6.9v-1.7h2.5v7.2h-11.9v-7.2h0ZM715,180.3v-1.6h-6.9v1.6h6.9ZM717.4,174.5h-2.5v-3.7h-2.8v-2h2.8v-4h2.5v9.8h0Z"/>
    <path class="st1" d="M733.3,167.3c0,1.5,0,3.2-.4,5.4h2.3v2h-16.3v-2h11.4c.4-2,.5-3.5.4-4.9h-9.8v-2h12.4v1.5h0ZM721,176.2h2.4v4h10.3v2h-12.8v-6h0Z"/>
    <path class="st1" d="M754.2,175h-2.5v-1.8h-4v-2h4v-1.7h-3.8c-1.1,2.8-3.6,4.8-7.5,5.8l-1-1.9c4.1-1.1,6.1-3.1,6.5-5.5h-5.5v-2h8.2c0,.6,0,1.1,0,1.6h3.3v-2.8h2.5v10.2h-.1ZM748.3,175.2c3.6,0,6,1.4,6,3.6s-2.4,3.6-6,3.6-6.1-1.4-6.1-3.6,2.4-3.6,6.1-3.6ZM748.3,180.5c2.2,0,3.5-.6,3.6-1.7,0-1.1-1.4-1.7-3.6-1.6-2.3,0-3.6.6-3.6,1.6s1.3,1.7,3.6,1.7Z"/>
    <path class="st1" d="M755.7,178.3h5.8v-6.1h2.5v6.1h8v2h-16.2v-2h0ZM770.3,168c0,2.2,0,4.7-.7,8.5l-2.5-.3c.7-3.3.7-5.8.7-7.9h-10.5v-2h13v1.7Z"/>
    <path class="st1" d="M787.4,176.6l-1.5,2c-2-.9-3.5-2.7-4.3-4.9-.8,2.4-2.3,4.3-4.4,5.3l-1.5-2.1c3.1-1.3,4.6-4.7,4.6-8.2v-2.6h2.5v2.6c0,3.3,1.5,6.5,4.5,7.8h.1ZM788.3,164.7h2.5v17.8h-2.5v-17.8Z"/>
    <path class="st1" d="M792.4,178.3h16.3v2h-16.3v-2ZM808.1,173.2l-1.1,2.1c-3.1-.6-5.4-2.4-6.6-4.6-1.2,2.3-3.5,4-6.6,4.6l-1.1-2.1c4-.7,6.3-3.5,6.3-6.1v-1.3h2.6v1.3c0,2.6,2.3,5.4,6.3,6.1h.2Z"/>
    <path class="st1" d="M816.4,167.8h-4.4v1.4h3.7v1.9h-3.7v1.6c1.9,0,3.3-.1,5-.4l.3,2c-2.1.4-3.8.4-6.4.4h-1.2v-8.8h6.8v2h0ZM812.1,176.1h12.1v6.3h-12.1v-6.3ZM821.7,180.3v-2.3h-7.2v2.3h7.2ZM816.5,169h1.8v-4h2.4v10.2h-2.4v-4.2h-1.8v-2ZM821.8,164.7h2.4v10.6h-2.4v-10.6Z"/>
    <path class="st1" d="M828.5,176.9v-5.3h2.4v5.2c1.7,0,3.5-.2,5.2-.4l.2,1.9c-3.7.6-7.7.7-10.8.6l-.2-2h3.3-.1ZM835.4,168c0,1.7,0,3.8-.5,6.8l-2.4-.2c.4-2.6.4-4.5.4-6h-6.7v-2h9.2v1.4h0ZM837,164.7h2.5v7.2h2.4v2.1h-2.4v8.6h-2.5v-17.8h0Z"/>
    <path class="st1" d="M75.2,208.3h16.3v2h-16.3v-2ZM90.9,203.2l-1.1,2.1c-3.1-.6-5.4-2.4-6.6-4.6-1.2,2.3-3.5,4-6.6,4.6l-1.1-2.1c4-.7,6.3-3.5,6.3-6.1v-1.3h2.6v1.3c0,2.6,2.3,5.4,6.3,6.1h.2Z"/>
    <path class="st1" d="M100.8,208.2h-8.6v-11.7h8.6v11.7ZM98.4,206.2v-7.8h-3.6v7.8h3.6ZM103.2,194.7h2.5v6.7h2.6v2.1h-2.6v9h-2.5v-17.8Z"/>
    <path class="st1" d="M108.2,208.5h16.3v2h-16.3v-2ZM122.7,205.9h-12.6v-9.8h12.4v2h-9.9v1.9h9.5v2h-9.5v2h10v2h0Z"/>
    <path class="st1" d="M139.1,198.3h-10.6v-2h4v-1.7h2.5v1.7h4v2h.1ZM133.8,198.9c2.6,0,4.4,1.3,4.4,3.3s-1.8,3.3-4.4,3.2c-2.6,0-4.4-1.3-4.4-3.2s1.8-3.3,4.4-3.3ZM130.6,206.7h12v5.9h-2.5v-3.9h-9.4v-2h-.1ZM133.8,203.5c1.2,0,2-.5,2-1.4s-.8-1.4-2-1.4-2,.5-2,1.4.8,1.4,2,1.4ZM140.1,194.7h2.5v4.6h2.4v2h-2.4v4.5h-2.5v-11.2h0Z"/>
    <path class="st1" d="M145,202.5h16.2v2h-16.2v-2ZM151.8,195.5v-.6h2.6v.6c0,1.8,2,3.8,6,4.2l-.9,2c-3.1-.4-5.3-1.7-6.4-3.4-1.2,1.7-3.4,3-6.4,3.4l-.9-2c4-.5,6-2.4,6-4.2h0ZM149.3,206.9h7.3v-1.5h2.5v6.9h-12.2v-6.9h2.4v1.5ZM156.6,210.4v-1.6h-7.3v1.6h7.3Z"/>
    <path class="st1" d="M176.7,206.6l-1.5,2c-2-.9-3.5-2.7-4.3-4.9-.8,2.4-2.3,4.3-4.4,5.3l-1.5-2.1c3.1-1.3,4.6-4.7,4.6-8.2v-2.6h2.5v2.6c0,3.3,1.5,6.5,4.5,7.8h0ZM177.6,194.7h2.5v17.8h-2.5v-17.8Z"/>
    <path class="st1" d="M181.7,208.3h16.3v2h-16.3v-2ZM197.4,203.2l-1.1,2.1c-3.1-.6-5.4-2.4-6.6-4.6-1.2,2.3-3.5,4-6.6,4.6l-1.1-2.1c4-.7,6.3-3.5,6.3-6.1v-1.3h2.6v1.3c0,2.6,2.3,5.4,6.3,6.1h.2Z"/>
    <path class="st1" d="M205.7,197.8h-4.4v1.4h3.7v1.9h-3.7v1.6c1.9,0,3.3-.1,5-.4l.3,2c-2.1.4-3.8.4-6.4.4h-1.2v-8.8h6.8v2h-.1ZM201.4,206.1h12.1v6.3h-12.1v-6.3ZM211,210.3v-2.3h-7.2v2.3h7.2ZM205.8,199h1.8v-4h2.4v10.2h-2.4v-4.2h-1.8v-2ZM211.1,194.7h2.4v10.6h-2.4v-10.6Z"/>
    <path class="st1" d="M230.9,205.8h-16.2v-2h16.2v2ZM222.8,195.3c3.9,0,6.4,1.4,6.4,3.6s-2.6,3.7-6.4,3.7-6.5-1.4-6.5-3.7,2.6-3.6,6.5-3.6ZM216.6,207h2.5v3.2h9.9v2h-12.4v-5.2h0ZM222.8,200.6c2.4,0,3.9-.5,3.9-1.6s-1.4-1.7-3.9-1.7-3.9.6-3.9,1.7,1.4,1.7,3.9,1.6Z"/>
    <path class="st1" d="M245.1,197.8h-3.6c0,2.1,1.3,4.2,4.2,5.2l-1.3,1.9c-2-.6-3.3-1.9-4.1-3.5-.8,1.7-2.2,3.1-4.3,3.8l-1.3-2c2.9-.9,4.3-3.2,4.3-5.4h-3.6v-2h9.7v2h0ZM237.1,206.3h12v6.3h-2.5v-4.3h-9.4v-2h-.1ZM246.6,194.7h2.5v4.3h2.4v2.1h-2.4v4.4h-2.5v-10.8h0Z"/>
    <path class="st1" d="M261,198.7h3v-4h2.5v9.6h-2.5v-3.6h-3c-.5,1.9-2.3,3.3-4.6,3.3s-4.7-1.8-4.7-4.2,2-4.2,4.7-4.2,4.1,1.3,4.6,3.2h0ZM256.4,201.9c1.4,0,2.3-.8,2.3-2.2s-1-2.2-2.3-2.2-2.4.8-2.4,2.2,1,2.2,2.4,2.2ZM254.6,205.1h2.5v1.7h6.9v-1.7h2.5v7.2h-11.9v-7.2h0ZM264,210.3v-1.6h-6.9v1.6h6.9Z"/>
    <path class="st1" d="M278.8,206.8l-1.4,2c-2-.9-3.4-2.7-4.2-4.8-.8,2.3-2.3,4.3-4.3,5.3l-1.4-2c3-1.4,4.5-4.7,4.5-7.6v-1.1h-3.8v-2h9.8v2h-3.6v1.1c0,2.7,1.4,5.8,4.4,7.2h0ZM279.4,194.7h2.5v6.8h2.6v2.1h-2.6v8.9h-2.5v-17.8Z"/>
    <path class="st1" d="M291.1,198.6h-5.9v-2h8.4c0,5.3-2.1,9.9-8,12.8l-1.4-1.9c4.2-2.1,6.5-5,6.9-8.9h0ZM298.5,201.6h2.5v2h-2.5v8.9h-2.5v-17.8h2.5v6.8h0Z"/>
    <path class="st1" d="M309.1,197.8h-3.7v-2h9.8v2h-3.6c0,2.1,1.4,4.3,4.2,5.2l-1.2,1.9c-2-.6-3.4-1.9-4.2-3.5-.8,1.8-2.3,3.1-4.4,3.8l-1.3-1.9c2.9-1,4.3-3.3,4.3-5.5h.1ZM307.4,206.3h12.2v6.3h-2.5v-4.3h-9.7v-2ZM319.6,205.5h-2.5v-10.7h2.5v10.7Z"/>
    <path class="st1" d="M330.4,197.5h3.3v-2.8h2.5v12.9h-2.5v-4.3h-3.3v1.5h-8.4v-8.6h8.4v1.3h0ZM324.3,206.5h2.5v3.7h9.7v2h-12.2v-5.7h0ZM327.9,202.9v-4.8h-3.5v4.8h3.5ZM333.7,201.4v-1.8h-3.3v1.8h3.3Z"/>
    <path class="st1" d="M337.6,196.1h4v-1.5h2.5v1.5h4v1.9h-10.6v-1.9h.1ZM342.9,198.4c2.7,0,4.4,1.1,4.4,2.9s-1.7,2.9-4.4,2.9-4.4-1.1-4.4-2.9,1.7-2.9,4.4-2.9ZM340,205.1h11.8v4.4h-9.3v1h9.8v1.8h-12.3v-4.6h9.3v-1h-9.3v-1.8h0v.2ZM342.9,202.5c1.2,0,2-.4,2-1.1s-.8-1.2-2-1.2-2,.4-2,1.2.7,1.1,2,1.1ZM351.8,198.6h2.4v2h-2.4v3.8h-2.5v-9.6h2.5v3.8Z"/>
    <path class="st1" d="M357.9,204.4h16.2v2h-6.9v6.1h-2.5v-6.1h-6.8v-2h0ZM373.6,201.1l-1,2c-3.1-.5-5.4-1.9-6.5-3.8-1.2,1.9-3.4,3.4-6.5,3.8l-1-2c4-.5,6.2-2.8,6.2-4.9v-.8h2.6v.8c0,2.1,2.1,4.4,6.2,4.9h0Z"/>
    <path class="st1" d="M383.4,195.7c2.8,0,4.8,1.8,4.8,4.3s-2.1,4.3-4.8,4.2c-2.8,0-4.9-1.7-4.9-4.2s2.1-4.3,4.9-4.3ZM386.7,210c1.5-1,2.1-2.5,2.1-3.9v-.6h2.4v.6c0,1.8,1,3.6,3.4,4.3l-1.2,1.8c-1.7-.6-2.8-1.6-3.4-3-.6,1.4-1.6,2.5-3.2,3.2-1.7-.6-2.7-1.7-3.3-3.1-.6,1.3-1.7,2.4-3.4,3l-1.2-1.8c2.3-.8,3.3-2.6,3.3-4.3v-.6h2.4v.6c0,1.4.6,2.9,2,3.9h.1ZM383.4,202.1c1.4,0,2.4-.8,2.4-2.2s-1-2.2-2.4-2.2-2.5.8-2.4,2.2c0,1.4,1,2.2,2.4,2.2ZM390.6,194.8h2.5v10h-2.5v-10Z"/>
    <path class="st1" d="M394.7,203.5h16.2v2h-16.2v-2ZM396.6,206.9h2.5v3.3h10.2v2h-12.7v-5.3h0ZM409.1,201.6h-12.4v-6.2h2.5v4.2h9.9v2h0Z"/>
    <path class="st1" d="M426.4,203.5l.2,1.8c-1.5.3-3,.5-4.4.6v6.1h-2.5v-5.9c-1.6,0-3,0-4.3.1l-.3-2c3.2,0,7.6,0,11.4-.6h-.1ZM425.4,199.3c0,2.2-2,3.8-4.7,3.8s-4.7-1.6-4.7-3.8,2-3.8,4.7-3.8,4.7,1.5,4.7,3.8ZM420.8,201c1.4,0,2.3-.6,2.3-1.7s-.9-1.8-2.3-1.8-2.3.6-2.2,1.8c0,1.1.9,1.7,2.2,1.7ZM427.5,194.8h2.5v17.8h-2.5v-17.8Z"/>
    <path class="st1" d="M431.5,196.3h4v-1.7h2.4v1.7h4v2h-10.5v-2h.1ZM436.7,198.9c2.5,0,4.3,1.3,4.3,3.2s-1.8,3.2-4.3,3.2-4.3-1.3-4.2-3.2c0-1.8,1.8-3.2,4.2-3.2ZM434.5,206.3h12v6.1h-12v-6.1ZM436.7,203.5c1.1,0,1.9-.5,1.9-1.4s-.7-1.3-1.9-1.3-1.9.5-1.9,1.3.7,1.4,1.9,1.4ZM444,210.3v-2.1h-7v2.1h7ZM446.5,205.5h-2.5v-3.5h-2.3v-2h2.3v-5.2h2.5v10.8h0Z"/>
    <path class="st1" d="M447.9,201.9h16.2v2h-16.2v-2ZM462.5,198.1c0,2-2.4,3-6.4,3s-6.5-1.1-6.5-3,2.4-3,6.5-3,6.4,1.1,6.4,3ZM449.8,207.7h9.9v-1h-9.9v-1.8h12.4v4.5h-9.9v1.1h10.4v1.9h-12.8v-4.7h-.1ZM456,199.3c2.6,0,3.9-.3,3.9-1.2s-1.3-1.2-3.9-1.2-3.9.4-3.9,1.2,1.3,1.2,3.9,1.2Z"/>
    <path class="st1" d="M479,206.5l-1.5,2c-1.9-.9-3.2-2.7-3.9-4.8-.8,2.3-2.1,4.2-4.2,5.2l-1.5-2c3-1.4,4.4-4.8,4.4-8.1v-2.6h2.5v2.6c0,3.2,1.3,6.4,4.2,7.8h0ZM479.7,194.7h2.5v6.9h2.6v2.1h-2.6v8.8h-2.5v-17.8Z"/>
    <path class="st1" d="M488.9,198.2v-.2h-3.6v-2h9.6v2h-3.5v.3c0,2.1,1.3,4.3,4.1,5.2l-1.2,2c-2-.7-3.3-1.9-4.1-3.5-.8,1.8-2.2,3.2-4.3,3.9l-1.3-2c2.9-.9,4.3-3.2,4.3-5.5h0v-.2ZM487.9,206.6h2.5v3.6h9.7v2h-12.2v-5.6ZM499.7,207.7h-2.5v-6.4h-2.9v-2h2.9v-4.6h2.5v13Z"/>
    <path class="st1" d="M505.2,196c2.1,0,3.6,2,3.9,5.3h1.4v-6.3h2.4v16.7h-2.4v-8.4h-1.4c-.2,3.5-1.7,5.6-3.9,5.6s-3.9-2.4-3.9-6.4,1.5-6.4,3.9-6.4h0ZM505.2,206.5c1,0,1.6-1.3,1.6-4.1s-.6-4.1-1.6-4.1-1.6,1.4-1.6,4.1.6,4.1,1.6,4.1ZM516.6,212.5h-2.4v-17.8h2.4v17.8Z"/>
    <path class="st1" d="M526.6,195.9c2.7,0,4.8,1.9,4.8,4.5s-2.1,4.5-4.8,4.5-4.9-1.9-4.9-4.5,2.1-4.5,4.9-4.5ZM526.6,202.7c1.3,0,2.4-.9,2.4-2.4s-1-2.3-2.4-2.3-2.5.9-2.4,2.3c0,1.5,1,2.3,2.4,2.4ZM524.4,206.3h2.5v4h9.9v2h-12.4v-6ZM536.3,207.5h-2.5v-12.8h2.5v12.8Z"/>
    <path class="st1" d="M549.3,206.8l-1.4,2c-2.1-.9-3.5-2.7-4.3-4.8-.8,2.3-2.3,4.3-4.4,5.2l-1.4-2c2.9-1.3,4.5-4.6,4.5-7.6v-1.1h-3.8v-2h10v2h-3.7v1.1c0,2.9,1.5,5.9,4.5,7.2h0ZM550.3,194.7h2.5v17.8h-2.5v-17.8Z"/>
    <path class="st1" d="M554.3,197.4h4v-2.4h2.5v2.4h3.9v2h-10.4v-2ZM559.6,200.4c2.6,0,4.5,1.7,4.5,4.2s-1.9,4.2-4.5,4.2-4.6-1.7-4.6-4.2,1.9-4.3,4.6-4.2ZM559.6,206.8c1.2,0,2.1-.8,2.1-2.2s-.9-2.2-2.1-2.2-2.2.9-2.2,2.2.9,2.2,2.2,2.2ZM568.4,201.7h2.6v2h-2.6v8.8h-2.5v-17.8h2.5v7h0Z"/>
    <path class="st1" d="M570.9,208.3h5.8v-6.1h2.5v6.1h8v2h-16.2v-2h0ZM585.5,198c0,2.2,0,4.7-.7,8.5l-2.5-.3c.7-3.3.7-5.8.7-7.9h-10.5v-2h13v1.7Z"/>
    <path class="st1" d="M591.7,196.8h6.6v2h-4.2v7.6c1.7,0,3.2-.1,5-.4l.2,2c-2.2.4-4.1.5-6.4.5h-1.2v-11.7h0ZM606.5,212.5h-2.4v-8.9h-1.7v8h-2.3v-16.6h2.3v6.6h1.7v-6.9h2.4v17.8h0Z"/>
    <path class="st1" d="M623.9,205h-16.2v-1.9h16.2v1.9ZM615.8,195.1c3.9,0,6.4,1.3,6.4,3.5s-2.5,3.5-6.4,3.5-6.5-1.3-6.5-3.5,2.5-3.5,6.5-3.5ZM615.7,206c3.9,0,6.2,1.2,6.2,3.3s-2.3,3.3-6.2,3.2c-3.9,0-6.2-1.1-6.2-3.2s2.3-3.3,6.2-3.3ZM615.8,200.2c2.4,0,3.9-.5,3.9-1.6s-1.4-1.5-3.9-1.5-3.9.5-3.9,1.5,1.4,1.6,3.9,1.6ZM615.7,210.7c2.4,0,3.7-.4,3.7-1.4s-1.3-1.4-3.7-1.4-3.7.5-3.7,1.4,1.2,1.4,3.7,1.4Z"/>
    <path class="st1" d="M624.1,196.1h4v-1.5h2.5v1.5h4v1.9h-10.6v-1.9h0ZM629.4,198.4c2.7,0,4.4,1.1,4.4,2.9s-1.7,2.9-4.4,2.9-4.4-1.1-4.4-2.9,1.7-2.9,4.4-2.9ZM626.4,205.1h11.8v4.4h-9.3v1h9.8v1.8h-12.3v-4.6h9.3v-1h-9.3v-1.8.2ZM629.4,202.5c1.2,0,2-.4,2-1.1s-.8-1.2-2-1.2-2,.4-2,1.2.7,1.1,2,1.1ZM638.2,198.6h2.4v2h-2.4v3.8h-2.5v-9.6h2.5v3.8Z"/>
    <path class="st1" d="M644.4,204.4h16.2v2h-6.9v6.1h-2.5v-6.1h-6.8v-2ZM660,201.1l-1,2c-3.1-.5-5.4-1.9-6.5-3.8-1.2,1.9-3.4,3.4-6.5,3.8l-1-2c4-.5,6.2-2.8,6.2-4.9v-.8h2.6v.8c0,2.1,2.1,4.4,6.2,4.9Z"/>
    <path class="st1" d="M669.8,195.7c2.8,0,4.8,1.8,4.8,4.3s-2.1,4.3-4.8,4.2c-2.8,0-4.9-1.7-4.9-4.2s2.1-4.3,4.9-4.3ZM673.2,210c1.5-1,2.1-2.5,2.1-3.9v-.6h2.4v.6c0,1.8,1,3.6,3.4,4.3l-1.2,1.8c-1.7-.6-2.8-1.6-3.4-3-.6,1.4-1.6,2.5-3.2,3.2-1.7-.6-2.7-1.7-3.3-3.1-.6,1.3-1.7,2.4-3.4,3l-1.2-1.8c2.3-.8,3.3-2.6,3.3-4.3v-.6h2.4v.6c0,1.4.6,2.9,2,3.9h.1ZM669.8,202.1c1.4,0,2.4-.8,2.4-2.2s-1-2.2-2.4-2.2-2.5.8-2.4,2.2c0,1.4,1,2.2,2.4,2.2ZM677.1,194.8h2.5v10h-2.5v-10Z"/>
    <path class="st1" d="M695.6,204.7h-5.2v3.8h7v2h-16.3v-2h6.9v-3.8h-5v-8.7h12.4v2h-9.9v4.7h10v2h0Z"/>
    <path class="st1" d="M713.9,206.3h-16.2v-2h6.9v-1.3h-4.9v-4.9h9.8v-1.1h-9.8v-1.9h12.3v4.8h-9.8v1.2h10.1v1.9h-5.2v1.3h6.9v2h0ZM699.4,207.3h12.6v5.2h-2.5v-3.2h-10.1v-2h0Z"/>
    <path class="st1" d="M734.2,204.7h-16.2v-2h6.8v-1.4h-4.9v-5.9h12.4v2h-9.8v1.9h10v2h-5.2v1.4h6.9v2ZM719.9,205.5h2.4v1.4h7.4v-1.4h2.5v6.8h-12.3v-6.8h0ZM729.7,210.3v-1.5h-7.4v1.5h7.4Z"/>
    <path class="st1" d="M734.4,202.5h16.2v2h-16.2v-2ZM741.2,195.5v-.6h2.6v.6c0,1.8,2,3.8,6,4.2l-.9,2c-3.1-.4-5.3-1.7-6.4-3.4-1.2,1.7-3.4,3-6.4,3.4l-.9-2c4-.5,6-2.4,6-4.2h0ZM738.8,206.9h7.3v-1.5h2.5v6.9h-12.2v-6.9h2.4v1.5ZM746.1,210.4v-1.6h-7.3v1.6h7.3Z"/>
    <path class="st1" d="M751.8,196.5h2.5v9.6c2.4,0,5-.3,7.6-.8l.3,2c-3.1.7-6,.9-8.8.8h-1.6v-11.7h0ZM765.8,212.5h-2.5v-17.8h2.5v17.8Z"/>
    <path class="st1" d="M768.1,196.4h8.3v2h-5.8v7.8c2.6,0,4.7-.2,7-.6l.3,2.1c-2.7.5-5.2.5-8.3.5h-1.5v-11.8h0ZM781.4,201.4h2.6v2h-2.6v9.2h-2.5v-17.8h2.5v6.6Z"/>
    <path class="st1" d="M784.5,209.3c0-.9.7-1.6,1.6-1.6s1.6.7,1.6,1.6-.8,1.7-1.6,1.6c-.9,0-1.7-.7-1.6-1.6Z"/>
  </g>
  <rect class="st0" x="276.8" y="5.7" width="310" height="27" rx="7.9" ry="7.9"/>
  <g>
    <path class="st1" d="M290.8,25.7l4.9-14.2h3.8l4.9,14.2h-3.2l-1.1-3.2h-5.1l-1.1,3.2h-3.2.1ZM299.4,20.2l-1.8-5.4h-.1l-1.8,5.4h3.7Z"/>
    <path class="st1" d="M305,20.5c0-3.6,2-5.5,4.3-5.5s2.6,1.1,3,1.9h.1v-5.3h2.9v14.2h-2.8v-1.7h-.2c-.4.9-1.3,1.9-3,1.8-2.4,0-4.3-1.9-4.3-5.4ZM310.2,23.6c1.4,0,2.2-1.3,2.2-3.2s-.8-3.1-2.2-3.1-2.3,1.3-2.3,3.1.8,3.2,2.3,3.2Z"/>
    <path class="st1" d="M323.7,25.7h-3.2l-3.7-10.6h3.1l2.2,7.6h.1l2.2-7.6h3l-3.7,10.6Z"/>
    <path class="st1" d="M332,19.5h2.6v-1c0-.9-.6-1.4-1.7-1.4s-1.6.5-1.8,1.2h-2.8c.2-1.9,1.8-3.3,4.6-3.3s4.5,1.1,4.5,3.6v7.2h-2.7v-1.5h-.1c-.5,1-1.5,1.7-3.1,1.7s-3.5-1.1-3.5-3.2,1.9-3.1,3.9-3.3h.1ZM332.4,23.9c1.3,0,2.3-.9,2.2-2v-.8c-.4,0-1.7,0-2.2.1-1,.1-1.6.6-1.6,1.4s.7,1.2,1.6,1.2h0Z"/>
    <path class="st1" d="M342.6,25.7h-2.9v-10.6h2.8v1.8h.1c.5-1.2,1.6-2,3.2-2s3.7,1.5,3.6,4v6.8h-2.9v-6.2c0-1.3-.7-2.1-1.9-2.1s-2,.8-2,2.2v6.2h0Z"/>
    <path class="st1" d="M351.2,20.5c0-3.2,2-5.5,5.2-5.5s4.6,1.6,4.7,4h-2.7c-.2-1-.9-1.8-2-1.8s-2.3,1.2-2.3,3.2.9,3.2,2.3,3.2,1.8-.6,2-1.8h2.7c-.1,2.4-1.9,4-4.7,4s-5.2-2.2-5.2-5.5h0v.2Z"/>
    <path class="st1" d="M362.5,20.5c0-3.3,2-5.5,5.2-5.5s5,1.8,5,5.4v.8h-7.2c0,1.6.9,2.6,2.4,2.6s1.7-.4,2-1h2.8c-.4,1.9-2.2,3.2-4.8,3.2s-5.3-2.1-5.3-5.4h-.1ZM369.9,19.4c0-1.3-.9-2.2-2.2-2.2s-2.3,1-2.3,2.2h4.5Z"/>
    <path class="st1" d="M374,20.5c0-3.6,2-5.5,4.3-5.5s2.6,1.1,3,1.9h.1v-5.3h2.9v14.2h-2.8v-1.7h-.2c-.4.9-1.3,1.9-3,1.8-2.4,0-4.3-1.9-4.3-5.4ZM379.3,23.6c1.4,0,2.2-1.3,2.2-3.2s-.8-3.1-2.2-3.1-2.3,1.3-2.3,3.1.8,3.2,2.3,3.2Z"/>
    <path class="st1" d="M391.3,11.6h5.5c3.2,0,5.1,2,5.1,4.8s-1.9,4.8-5.1,4.8h-2.6v4.6h-2.9v-14.2h0ZM396.3,18.8c1.7,0,2.6-1,2.6-2.4s-.8-2.4-2.6-2.4h-2.1v4.8h2.1Z"/>
    <path class="st1" d="M406.9,19.5h2.6v-1c0-.9-.6-1.4-1.7-1.4s-1.6.5-1.8,1.2h-2.8c.2-1.9,1.8-3.3,4.6-3.3s4.5,1.1,4.5,3.6v7.2h-2.7v-1.5h-.1c-.5,1-1.5,1.7-3.1,1.7s-3.5-1.1-3.5-3.2,1.9-3.1,3.9-3.3h.1ZM407.3,23.9c1.3,0,2.3-.9,2.2-2v-.8c-.4,0-1.7,0-2.2.1-1,.1-1.6.6-1.6,1.4s.7,1.2,1.6,1.2h0Z"/>
    <path class="st1" d="M420.2,17.3h-2v5.2c0,.8.4,1,1,1h1.2v2.3c-.3,0-.8.1-1.5.1-2.1,0-3.5-1-3.5-3v-5.6h-1.5v-2.2h1.5v-2.6h2.9v2.6h2v2.2h-.1Z"/>
    <path class="st1" d="M421.5,20.5c0-3.3,2-5.5,5.2-5.5s5,1.8,5,5.4v.8h-7.2c0,1.6.9,2.6,2.4,2.6s1.7-.4,2-1h2.8c-.4,1.9-2.2,3.2-4.8,3.2s-5.3-2.1-5.3-5.4h-.1ZM428.9,19.4c0-1.3-.9-2.2-2.2-2.2s-2.3,1-2.3,2.2h4.5Z"/>
    <path class="st1" d="M436.3,25.7h-2.9v-10.6h2.8v1.8h.1c.5-1.2,1.6-2,3.2-2s3.7,1.5,3.6,4v6.8h-2.9v-6.2c0-1.3-.7-2.1-1.9-2.1s-2,.8-2,2.2v6.2h0Z"/>
    <path class="st1" d="M451,17.3h-2v5.2c0,.8.4,1,1,1h1.2v2.3c-.3,0-.8.1-1.5.1-2.1,0-3.5-1-3.5-3v-5.6h-1.5v-2.2h1.5v-2.6h2.9v2.6h2v2.2h-.1Z"/>
    <path class="st1" d="M456.9,17.1c-.9,0-1.6.4-1.6,1.1s.4.9,1.4,1.1l1.9.4c2,.4,3,1.4,3,2.9s-1.9,3.5-4.7,3.5-4.6-1.3-4.8-3.4h2.9c.1.8.8,1.3,1.9,1.3s1.7-.4,1.8-1.1c0-.5-.5-.9-1.4-1.1l-1.8-.4c-2-.4-3.1-1.4-3.1-3s1.8-3.3,4.5-3.3,4.3,1.3,4.5,3.3h-2.7c-.1-.8-.8-1.2-1.8-1.2h0Z"/>
    <path class="st1" d="M467.6,22c0-1.6,1-2.6,2.6-3.7-.8-1-1.4-2-1.4-3.3,0-2,1.5-3.6,3.8-3.6s3.7,1.5,3.7,3.3-.7,2.4-1.9,3.2l-.9.6,2.4,2.7c.4-.7.6-1.5.6-2.5h2.4c0,1.9-.5,3.4-1.3,4.4l2.1,2.4h-3l-.9-1c-1,.8-2.4,1.2-3.6,1.2-2.9,0-4.7-1.7-4.7-4h0v.3ZM472.5,23.6c.6,0,1.3-.2,1.9-.6l-2.7-3h0c-.8.7-1.2,1.3-1.2,1.8,0,1,.8,1.8,2.1,1.8h0ZM472.2,16.9l.7-.5c.7-.5,1.1-1,1-1.6,0-.6-.5-1.2-1.3-1.2s-1.4.6-1.4,1.3.4,1.2.9,1.9h0Z"/>
    <path class="st1" d="M485.6,11.6h9.5v2.4h-6.6v3.4h6.1v2.4h-6.1v3.4h6.6v2.4h-9.5v-14.2h0v.2Z"/>
    <path class="st1" d="M501.7,18.9l2-3.7h3l-3.1,5.3,3.2,5.3h-3l-2.1-3.7-2.1,3.7h-3l3.2-5.3-3-5.3h3l2,3.7h-.1Z"/>
    <path class="st1" d="M508.3,15.1h2.8v1.8h.2c.4-.8,1.2-1.9,3-1.9s4.3,1.8,4.3,5.5-1.9,5.5-4.3,5.4c-1.7,0-2.6-1-3-1.8h-.1v5.6h-2.9v-14.6ZM513.4,23.6c1.5,0,2.3-1.3,2.3-3.2s-.8-3.1-2.3-3.1-2.2,1.2-2.2,3.1.8,3.2,2.2,3.2Z"/>
    <path class="st1" d="M520,20.5c0-3.3,2-5.5,5.2-5.5s5,1.8,5,5.4v.8h-7.2c0,1.6.9,2.6,2.4,2.6s1.7-.4,2-1h2.8c-.4,1.9-2.2,3.2-4.8,3.2s-5.3-2.1-5.3-5.4h-.1ZM527.4,19.4c0-1.3-.9-2.2-2.2-2.2s-2.3,1-2.3,2.2h4.5Z"/>
    <path class="st1" d="M531.9,15.1h2.8v1.8h0c.4-1.3,1.4-2,2.6-2s.7,0,.9,0v2.6c-.3-.1-.8-.2-1.2-.2-1.3,0-2.3.9-2.3,2.2v6h-2.9v-10.6h0v.2Z"/>
    <path class="st1" d="M545.9,17.3h-2v5.2c0,.8.4,1,1,1h1.2v2.3c-.3,0-.8.1-1.5.1-2.1,0-3.5-1-3.5-3v-5.6h-1.5v-2.2h1.5v-2.6h2.9v2.6h2v2.2h-.1Z"/>
    <path class="st1" d="M549.1,10.8c.9,0,1.6.6,1.6,1.4s-.7,1.5-1.6,1.5-1.6-.7-1.6-1.5.7-1.5,1.6-1.4ZM547.7,15.1h2.9v10.6h-2.9v-10.6Z"/>
    <path class="st1" d="M557.2,17.1c-.9,0-1.6.4-1.6,1.1s.4.9,1.4,1.1l1.9.4c2,.4,3,1.4,3,2.9s-1.9,3.5-4.7,3.5-4.6-1.3-4.8-3.4h2.9c0,.8.8,1.3,1.9,1.3s1.7-.4,1.8-1.1c0-.5-.5-.9-1.4-1.1l-1.8-.4c-2-.4-3.1-1.4-3.1-3s1.8-3.3,4.5-3.3,4.3,1.3,4.5,3.3h-2.7c0-.8-.8-1.2-1.8-1.2h0Z"/>
    <path class="st1" d="M563.2,20.5c0-3.3,2-5.5,5.2-5.5s5,1.8,5,5.4v.8h-7.2c0,1.6.9,2.6,2.4,2.6s1.7-.4,2-1h2.8c-.4,1.9-2.2,3.2-4.8,3.2s-5.3-2.1-5.3-5.4h-.1ZM570.6,19.4c0-1.3-.9-2.2-2.2-2.2s-2.3,1-2.3,2.2h4.5Z"/>
  </g>
</svg>