<?xml version="1.0" encoding="UTF-8"?>
<svg id="Layer_2" data-name="Layer 2" xmlns="http://www.w3.org/2000/svg" viewBox="0 0 648.56 209.87">
  <defs>
    <style>
      .cls-1 {
        fill: #fff;
      }

      .cls-2 {
        fill: #0060b7;
      }
    </style>
  </defs>
  <g id="Layer_1-2" data-name="Layer 1">
    <rect class="cls-2" x="170.03" y="0" width="310" height="27" rx="7.88" ry="7.88"/>
    <g>
      <path class="cls-1" d="M207.08,63.51c8.16,0,14.52,5.64,14.52,13.44s-6.36,13.56-14.52,13.56-14.64-5.58-14.64-13.56,6.42-13.44,14.64-13.44ZM207.08,84.03c4.02-.06,7.14-2.58,7.08-7.08.06-4.32-3.06-6.9-7.08-6.96-4.2.06-7.38,2.64-7.32,6.96-.06,4.5,3.12,7.02,7.32,7.08ZM200.48,94.59h7.56v11.88h29.64v6h-37.2v-17.88ZM236.24,98.43h-7.44v-38.28h7.44v38.28Z"/>
      <path class="cls-1" d="M289.76,90.63h-48.72v-6h48.72v6ZM259.94,68.55h-14.46v-6h39.84v6h-14.58c1.2,3.72,6.66,7.38,16.86,8.28l-2.52,5.88c-10.14-.96-16.92-4.8-19.74-9.96-2.82,5.16-9.54,9-19.62,9.96l-2.52-5.88c10.02-.9,15.54-4.5,16.74-8.28ZM265.28,93.63c11.58.06,18.54,3.66,18.6,9.96-.06,6.3-7.02,9.84-18.6,9.84s-18.66-3.54-18.6-9.84c-.06-6.3,6.96-9.9,18.6-9.96ZM265.28,107.55c7.26.06,11.1-1.2,11.16-3.96-.06-2.82-3.9-4.08-11.16-4.08s-11.1,1.26-11.04,4.08c-.06,2.76,3.66,4.02,11.04,3.96Z"/>
      <path class="cls-1" d="M330.68,85.71h-26.04v-22.44h26.04v22.44ZM324.44,98.79h-14.88v-5.52h15.12v-4.44h7.56v4.44h15.12v5.52h-14.88c.84,3.72,6.42,7.86,17.04,8.88l-2.52,5.64c-8.94-.84-15.24-4.08-18.48-8.28-3.24,4.26-9.54,7.38-18.48,8.28l-2.64-5.64c10.68-.9,16.32-5.1,17.04-8.88ZM323.24,79.95v-10.8h-11.28v10.8h11.28ZM339.08,60.03h7.44v30.36h-7.44v-30.36Z"/>
      <path class="cls-1" d="M395.12,83.79l-3.96,5.76c-5.76-1.98-9.66-5.64-11.88-10.44-2.34,5.58-6.66,9.96-13.08,12.12l-3.96-6c9.18-2.94,13.08-10.08,13.08-17.52v-4.8h7.56v4.44c0,7.14,3.66,13.74,12.24,16.44ZM389.48,92.67c11.4.06,18.36,3.9,18.36,10.44s-6.96,10.32-18.36,10.32-18.36-3.72-18.36-10.32,6.96-10.38,18.36-10.44ZM389.48,107.55c7.08.06,10.92-1.5,10.92-4.44s-3.84-4.56-10.92-4.56-10.92,1.5-10.92,4.56,3.84,4.5,10.92,4.44ZM390.2,69.87h10.08v-9.84h7.44v31.32h-7.44v-15.36h-10.08v-6.12Z"/>
      <path class="cls-1" d="M421.52,96.45v-15.78h7.32v15.54c5.22-.24,10.56-.6,15.48-1.26l.48,5.64c-10.98,1.8-23.04,1.98-32.4,1.92l-.72-5.88c3-.06,6.36-.06,9.84-.18ZM442.16,69.75c-.06,4.98-.06,11.52-1.44,20.4l-7.32-.6c1.2-7.68,1.32-13.44,1.32-18.12h-20.16v-6h27.6v4.32ZM446.84,60.03h7.56v21.48h7.32v6.24h-7.32v25.68h-7.56v-53.4Z"/>
    </g>
    <g>
      <path class="cls-1" d="M4.32,167.1H.72v-2h9.64v2h-3.52c.04,2.06,1.32,4.16,4.08,5.08l-1.24,1.96c-1.94-.64-3.3-1.92-4.08-3.52-.78,1.82-2.18,3.26-4.28,4l-1.32-2c2.92-.96,4.26-3.28,4.32-5.52ZM9.04,174.99c3.8.02,6.12,1.28,6.12,3.44s-2.32,3.42-6.12,3.44c-3.8-.02-6.12-1.28-6.12-3.44s2.32-3.42,6.12-3.44ZM9.04,179.95c2.36,0,3.64-.5,3.64-1.52s-1.28-1.54-3.64-1.52c-2.36-.02-3.64.5-3.64,1.52s1.28,1.52,3.64,1.52ZM15.12,174.59h-2.48v-4.2h-2.8v-2h2.8v-4.36h2.48v10.56Z"/>
      <path class="cls-1" d="M32.84,176.27h-6.92v5.56h-2.48v-5.56h-6.84v-1.96h16.24v1.96ZM18.48,164.74h2.48v2.04h7.48v-2.04h2.48v7.84h-12.44v-7.84ZM28.44,170.59v-1.84h-7.48v1.84h7.48Z"/>
      <path class="cls-1" d="M39.82,167.91h-5.9v-2.04h8.44c-.02,5.32-2.08,9.92-8.04,12.84l-1.44-1.88c4.22-2.12,6.46-4.96,6.94-8.92ZM47.12,170.87h2.52v2.04h-2.52v8.88h-2.52v-17.76h2.52v6.84Z"/>
      <path class="cls-1" d="M58.52,165.18c2.72,0,4.84,1.88,4.84,4.48s-2.12,4.52-4.84,4.52-4.88-1.86-4.88-4.52,2.14-4.48,4.88-4.48ZM58.52,172.03c1.34-.02,2.38-.86,2.36-2.36.02-1.44-1.02-2.3-2.36-2.32-1.4.02-2.46.88-2.44,2.32-.02,1.5,1.04,2.34,2.44,2.36ZM56.32,175.55h2.52v3.96h9.88v2h-12.4v-5.96ZM68.24,176.83h-2.48v-12.76h2.48v12.76Z"/>
      <path class="cls-1" d="M74.04,167.1h-3.6v-2h9.64v2h-3.52c.04,2.06,1.32,4.16,4.08,5.08l-1.24,1.96c-1.94-.64-3.3-1.92-4.08-3.52-.78,1.82-2.18,3.26-4.28,4l-1.32-2c2.92-.96,4.26-3.28,4.32-5.52ZM78.76,174.99c3.8.02,6.12,1.28,6.12,3.44s-2.32,3.42-6.12,3.44c-3.8-.02-6.12-1.28-6.12-3.44s2.32-3.42,6.12-3.44ZM78.76,179.95c2.36,0,3.64-.5,3.64-1.52s-1.28-1.54-3.64-1.52c-2.36-.02-3.64.5-3.64,1.52s1.28,1.52,3.64,1.52ZM84.84,174.59h-2.48v-4.2h-2.8v-2h2.8v-4.36h2.48v10.56Z"/>
      <path class="cls-1" d="M86.32,165.94h4.04v-1.92h2.48v1.92h4.04v1.96h-10.56v-1.96ZM91.6,168.51c2.58.02,4.38,1.4,4.4,3.48-.02,2.02-1.82,3.38-4.4,3.36-2.6.02-4.4-1.34-4.4-3.36s1.8-3.46,4.4-3.48ZM88.88,176.31h2.52v3.2h9.68v2h-12.2v-5.2ZM91.6,173.47c1.2,0,2-.52,2-1.48,0-1.02-.8-1.56-2-1.56s-1.98.54-1.96,1.56c-.02.96.78,1.48,1.96,1.48ZM100.44,169.51h2.4v2.04h-2.4v5.8h-2.52v-13.28h2.52v5.44Z"/>
      <path class="cls-1" d="M107.24,165.43h2.36v2.72h2.4v-2.72h2.32v3.52h1.6v-4.64h2.36v12.64h-2.36v-6h-1.6v3.44h-7.08v-8.96ZM112,172.39v-2.36h-2.4v2.36h2.4ZM109.84,175.71h2.48v3.8h10v2h-12.48v-5.8ZM121.88,177.51h-2.36v-13.48h2.36v13.48Z"/>
      <path class="cls-1" d="M127.28,169.63v-.68h-3.72v-2h3.72v-2.52h2.48v2.52h3.6v2h-3.6v.68c-.02,2.56,1.4,5.44,4.32,6.68l-1.36,1.92c-2.02-.84-3.42-2.54-4.2-4.56-.76,2.16-2.16,3.96-4.2,4.84l-1.32-1.92c2.86-1.28,4.26-4.3,4.28-6.96ZM138.12,181.87h-2.52v-9h-3.2v-2h3.2v-6.84h2.52v17.84Z"/>
      <path class="cls-1" d="M146.64,167.87h-6.08v-1.96h8.6c.02,5.38-1.88,9.88-8.24,12.88l-1.28-2c4.58-2.18,6.6-4.98,7-8.92ZM154.52,181.83h-2.52v-17.8h2.52v17.8Z"/>
      <path class="cls-1" d="M165.58,167.99h2.98v-3.96h2.48v9.56h-2.48v-3.6h-2.96c-.48,1.94-2.3,3.28-4.6,3.28-2.72,0-4.74-1.78-4.72-4.24-.02-2.46,2-4.24,4.72-4.24,2.26,0,4.08,1.3,4.58,3.2ZM161,171.19c1.36,0,2.32-.84,2.32-2.16s-.96-2.16-2.32-2.16-2.36.82-2.36,2.16.98,2.16,2.36,2.16ZM159.16,174.39h2.48v1.72h6.92v-1.72h2.48v7.24h-11.88v-7.24ZM168.56,179.63v-1.6h-6.92v1.6h6.92Z"/>
      <path class="cls-1" d="M172.52,177.63h16.28v2.04h-16.28v-2.04ZM187.32,170.07c0,3.1-2.94,5.12-6.68,5.12s-6.68-2.02-6.68-5.12,2.92-5.1,6.68-5.12c3.74.02,6.68,2.04,6.68,5.12ZM180.64,173.15c2.44,0,4.22-1.14,4.24-3.08-.02-1.9-1.8-3.1-4.24-3.08-2.48-.02-4.28,1.18-4.28,3.08s1.8,3.08,4.28,3.08Z"/>
      <path class="cls-1" d="M205.28,179.83h-16.28v-2.04h6.88v-2.68h-5v-5.96h10.04v-1.96h-10.08v-2h12.56v5.92h-10.04v2h10.44v2h-5.48v2.68h6.96v2.04Z"/>
      <path class="cls-1" d="M207.56,184.15h-2.08l.96-5.56h2.8l-1.68,5.56Z"/>
      <path class="cls-1" d="M220.68,167.87h-6.08v-1.96h8.6c.02,5.38-1.88,9.88-8.24,12.88l-1.28-2c4.58-2.18,6.6-4.98,7-8.92ZM228.56,181.83h-2.52v-17.8h2.52v17.8Z"/>
      <path class="cls-1" d="M230.08,171.03h16.24v1.96h-6.92v1.2h4.92v4.56h-9.92v1.08h10.4v1.88h-12.84v-4.72h9.92v-.92h-9.92v-1.88h4.96v-1.2h-6.84v-1.96ZM245.48,168.43l-.8,1.88c-3.1-.36-5.36-1.52-6.5-3.16-1.14,1.64-3.4,2.8-6.46,3.16l-.84-1.88c4-.42,6.02-2.16,6.04-3.92v-.36h2.56v.36c0,1.76,2.04,3.5,6,3.92Z"/>
      <path class="cls-1" d="M257.36,171.95l-1.32,1.92c-1.92-.66-3.22-1.88-3.96-3.48-.78,1.86-2.22,3.32-4.36,4.04l-1.32-2c3.06-.98,4.36-3.36,4.36-5.84v-1.6h2.52v1.48c0,2.38,1.22,4.58,4.08,5.48ZM255.48,174.91c3.8.02,6.12,1.3,6.12,3.48s-2.32,3.44-6.12,3.44-6.12-1.24-6.12-3.44,2.32-3.46,6.12-3.48ZM255.48,179.87c2.36.02,3.64-.5,3.64-1.48s-1.28-1.52-3.64-1.52-3.64.5-3.64,1.52,1.28,1.5,3.64,1.48ZM255.72,167.31h3.36v-3.28h2.48v10.44h-2.48v-5.12h-3.36v-2.04Z"/>
      <path class="cls-1" d="M266.16,176.17v-5.26h2.44v5.18c1.74-.08,3.52-.2,5.16-.42l.16,1.88c-3.66.6-7.68.66-10.8.64l-.24-1.96c1-.02,2.12-.02,3.28-.06ZM273.04,167.26c-.02,1.66-.02,3.84-.48,6.8l-2.44-.2c.4-2.56.44-4.48.44-6.04h-6.72v-2h9.2v1.44ZM274.6,164.02h2.52v7.16h2.44v2.08h-2.44v8.56h-2.52v-17.8Z"/>
      <path class="cls-1" d="M294.12,171.95l-1.32,1.92c-1.92-.66-3.22-1.88-3.96-3.48-.78,1.86-2.22,3.32-4.36,4.04l-1.32-2c3.06-.98,4.36-3.36,4.36-5.84v-1.6h2.52v1.48c0,2.38,1.22,4.58,4.08,5.48ZM292.24,174.91c3.8.02,6.12,1.3,6.12,3.48s-2.32,3.44-6.12,3.44-6.12-1.24-6.12-3.44,2.32-3.46,6.12-3.48ZM292.24,179.87c2.36.02,3.64-.5,3.64-1.48s-1.28-1.52-3.64-1.52-3.64.5-3.64,1.52,1.28,1.5,3.64,1.48ZM292.48,167.31h3.36v-3.28h2.48v10.44h-2.48v-5.12h-3.36v-2.04Z"/>
      <path class="cls-1" d="M309.92,167.22h-3.56c.02,2.06,1.26,4.08,4.12,4.92l-1.2,1.96c-1.96-.6-3.32-1.8-4.12-3.32-.78,1.78-2.22,3.2-4.36,3.88l-1.24-1.96c2.92-.92,4.26-3.22,4.28-5.48h-3.6v-2h9.68v2ZM308.08,174.95c3.7-.02,6,1.26,6,3.44s-2.3,3.44-6,3.44-6.1-1.28-6.08-3.44c-.02-2.18,2.32-3.46,6.08-3.44ZM308.08,179.87c2.3.02,3.54-.48,3.52-1.48.02-1.02-1.22-1.5-3.52-1.52-2.32.02-3.6.5-3.6,1.52s1.28,1.5,3.6,1.48ZM311.4,164.02h2.52v4.16h2.4v2h-2.4v4.4h-2.52v-10.56Z"/>
      <path class="cls-1" d="M327.08,171.95l-1.32,1.92c-1.92-.66-3.22-1.88-3.96-3.48-.78,1.86-2.22,3.32-4.36,4.04l-1.32-2c3.06-.98,4.36-3.36,4.36-5.84v-1.6h2.52v1.48c0,2.38,1.22,4.58,4.08,5.48ZM325.2,174.91c3.8.02,6.12,1.3,6.12,3.48s-2.32,3.44-6.12,3.44-6.12-1.24-6.12-3.44,2.32-3.46,6.12-3.48ZM325.2,179.87c2.36.02,3.64-.5,3.64-1.48s-1.28-1.52-3.64-1.52-3.64.5-3.64,1.52,1.28,1.5,3.64,1.48ZM325.44,167.31h3.36v-3.28h2.48v10.44h-2.48v-5.12h-3.36v-2.04Z"/>
      <path class="cls-1" d="M332.76,171.23h16.24v1.96h-16.24v-1.96ZM347.32,167.35c0,1.96-2.36,3.04-6.44,3.04s-6.5-1.08-6.48-3.04c-.02-1.98,2.36-3.04,6.48-3.04s6.44,1.06,6.44,3.04ZM334.64,177.03h9.92v-.96h-9.92v-1.84h12.36v4.52h-9.92v1.08h10.4v1.88h-12.84v-4.68ZM340.88,168.55c2.62,0,3.88-.34,3.88-1.2,0-.8-1.26-1.22-3.88-1.24-2.62.02-3.88.44-3.88,1.24,0,.86,1.26,1.2,3.88,1.2Z"/>
      <path class="cls-1" d="M360.12,167.87h-6.08v-1.96h8.6c.02,5.38-1.88,9.88-8.24,12.88l-1.28-2c4.58-2.18,6.6-4.98,7-8.92ZM368,181.83h-2.52v-17.8h2.52v17.8Z"/>
      <path class="cls-1" d="M370.04,165.31h2.48v2.6h3.64v-2.6h2.52v9h-8.64v-9ZM372.08,175.83h2.52v3.68h9.68v2h-12.2v-5.68ZM376.16,172.39v-2.56h-3.64v2.56h3.64ZM383.64,169.07h2.4v2.04h-2.4v6.04h-2.52v-13.08h2.52v5Z"/>
      <path class="cls-1" d="M386,177.63h16.28v2.04h-16.28v-2.04ZM400.8,170.07c0,3.1-2.94,5.12-6.68,5.12s-6.68-2.02-6.68-5.12,2.92-5.1,6.68-5.12c3.74.02,6.68,2.04,6.68,5.12ZM394.12,173.15c2.44,0,4.22-1.14,4.24-3.08-.02-1.9-1.8-3.1-4.24-3.08-2.48-.02-4.28,1.18-4.28,3.08s1.8,3.08,4.28,3.08Z"/>
      <path class="cls-1" d="M418.76,179.83h-16.28v-2.04h6.88v-2.68h-5v-5.96h10.04v-1.96h-10.08v-2h12.56v5.92h-10.04v2h10.44v2h-5.48v2.68h6.96v2.04Z"/>
      <path class="cls-1" d="M432.68,167.55h-9.88v-1.96h3.84v-1.68h2.48v1.68h3.56v1.96ZM427.84,168.19c2.42,0,4.2,1.4,4.2,3.4s-1.78,3.38-4.2,3.4c-2.38-.02-4.18-1.46-4.16-3.4-.02-2,1.78-3.4,4.16-3.4ZM425.52,176.19h12.24v5.64h-2.48v-3.68h-9.76v-1.96ZM427.84,173.07c1.08,0,1.9-.56,1.92-1.48-.02-.96-.84-1.54-1.92-1.56-1.08.02-1.84.6-1.84,1.56s.76,1.48,1.84,1.48ZM432.84,171.47h2.44v-1.44h-2.4v-2h2.4v-4h2.48v11.32h-2.48v-1.88h-2.44v-2Z"/>
      <path class="cls-1" d="M443.48,166.75v-1.72h2.56v1.72c0,2.36,1.26,4.66,4.2,5.6l-1.28,1.96c-2.02-.66-3.4-2-4.18-3.7-.8,1.82-2.22,3.3-4.3,4.02l-1.28-1.96c2.96-1.02,4.26-3.5,4.28-5.92ZM442.2,175.79h2.52v3.72h9.88v2h-12.4v-5.72ZM454.12,177.03h-2.48v-12.96h2.48v12.96Z"/>
      <path class="cls-1" d="M465.96,167.02h-3.52c.02,2.08,1.28,4.22,4.08,5.16l-1.24,1.92c-1.96-.62-3.3-1.9-4.08-3.5-.78,1.78-2.2,3.2-4.28,3.86l-1.28-1.96c2.9-.94,4.24-3.26,4.28-5.48h-3.6v-2h9.64v2ZM458.48,175.43h12.24v6.4h-2.48v-4.4h-9.76v-2ZM465.48,168.31h2.76v-4.28h2.48v10.6h-2.48v-4.28h-2.76v-2.04Z"/>
      <path class="cls-1" d="M477.36,165.18c2.72,0,4.84,1.88,4.84,4.48s-2.12,4.52-4.84,4.52-4.88-1.86-4.88-4.52,2.14-4.48,4.88-4.48ZM477.36,172.03c1.34-.02,2.38-.86,2.36-2.36.02-1.44-1.02-2.3-2.36-2.32-1.4.02-2.46.88-2.44,2.32-.02,1.5,1.04,2.34,2.44,2.36ZM475.16,175.55h2.52v3.96h9.88v2h-12.4v-5.96ZM487.08,176.83h-2.48v-12.76h2.48v12.76Z"/>
      <path class="cls-1" d="M501.8,171.31h6.92v2h-16.24v-2h6.84v-1.92h2.48v1.92ZM499.28,164.58v-.4h2.56v.4c0,1.9,1.92,3.58,6,3.96l-.88,1.88c-3.04-.36-5.28-1.44-6.4-3.06-1.14,1.62-3.36,2.7-6.44,3.06l-.84-1.88c4.06-.38,6.02-2.06,6-3.96ZM494.36,177.03h9.92v-.96h-9.92v-1.88h12.36v4.6h-9.92v1.04h10.4v1.88h-12.84v-4.68Z"/>
      <path class="cls-1" d="M508.96,174.71h16.24v1.96h-6.92v5.2h-2.48v-5.2h-6.84v-1.96ZM523.36,169.87h-9.96v1.52h10.36v1.96h-12.88v-5.32h9.92v-1.44h-9.96v-2h12.52v5.28Z"/>
      <path class="cls-1" d="M536.12,173.03l-1.36,1.96c-1.88-.74-3.16-2.14-3.9-3.88-.76,1.86-2.12,3.34-4.14,4.12l-1.36-1.96c2.92-1.04,4.22-3.54,4.24-6.16v-2.04h2.52v2.04c-.02,2.46,1.2,4.9,4,5.92ZM528.6,175.99h2.52v3.52h9.68v2h-12.2v-5.52ZM534.92,169.83h3.04v-1.44h-3.04v-2h3.04v-2.32h2.48v13.16h-2.48v-5.4h-3.04v-2Z"/>
      <path class="cls-1" d="M541.92,171.23h16.24v1.96h-16.24v-1.96ZM556.48,167.35c0,1.96-2.36,3.04-6.44,3.04s-6.5-1.08-6.48-3.04c-.02-1.98,2.36-3.04,6.48-3.04s6.44,1.06,6.44,3.04ZM543.8,177.03h9.92v-.96h-9.92v-1.84h12.36v4.52h-9.92v1.08h10.4v1.88h-12.84v-4.68ZM550.04,168.55c2.62,0,3.88-.34,3.88-1.2,0-.8-1.26-1.22-3.88-1.24-2.62.02-3.88.44-3.88,1.24,0,.86,1.26,1.2,3.88,1.2Z"/>
      <path class="cls-1" d="M567.5,168.22h-4.62v-2h7.04c0,4.98-1.48,9.04-6.48,11.96l-1.44-1.76c3.62-2.12,5.18-4.72,5.5-8.2ZM577.52,181.83h-2.36v-9.04h-1.64v8.24h-2.32v-16.52h2.32v6.28h1.64v-6.76h2.36v17.8Z"/>
      <path class="cls-1" d="M581.68,166.94h3.64v-2.12h2.52v7.76h-8.64v-7.76h2.48v2.12ZM581,173.75h11.8v4.84h-9.32v1.16h9.84v1.96h-12.28v-4.92h9.28v-1.12h-9.32v-1.92ZM585.32,170.67v-1.84h-3.64v1.84h3.64ZM590.28,164.02h2.52v3.48h2.4v2h-2.4v3.6h-2.52v-9.08Z"/>
      <path class="cls-1" d="M595.16,165.63h4.04v-1.72h2.48v1.72h4.04v1.96h-10.56v-1.96ZM600.44,168.07c2.58.02,4.38,1.26,4.4,3.16-.02,1.88-1.82,3.14-4.4,3.12-2.62.02-4.4-1.24-4.4-3.12s1.78-3.14,4.4-3.16ZM597.64,175.15h2.48v1.36h6.64v-1.36h2.52v6.48h-11.64v-6.48ZM600.44,172.55c1.2,0,2-.46,2-1.32s-.8-1.34-2-1.32c-1.18-.02-1.98.48-1.96,1.32-.02.86.78,1.32,1.96,1.32ZM606.76,179.67v-1.24h-6.64v1.24h6.64ZM609.28,168.35h2.4v2.04h-2.4v4.08h-2.52v-10.44h2.52v4.32Z"/>
      <path class="cls-1" d="M612.6,165.74h2.48v9.56c2.4-.04,4.98-.26,7.6-.76l.28,2.04c-3.1.66-6.04.86-8.8.84h-1.56v-11.68ZM626.6,181.83h-2.48v-17.8h2.48v17.8Z"/>
      <path class="cls-1" d="M628.84,165.7h8.32v2h-5.84v7.8c2.58-.04,4.7-.16,7.04-.56l.28,2.08c-2.74.46-5.16.54-8.32.52h-1.48v-11.84ZM642.16,170.67h2.6v2h-2.6v9.2h-2.52v-17.84h2.52v6.64Z"/>
      <path class="cls-1" d="M645.28,178.55c-.04-.88.72-1.62,1.64-1.6.86-.02,1.62.72,1.64,1.6-.02.92-.78,1.66-1.64,1.64-.92.02-1.68-.72-1.64-1.64Z"/>
      <path class="cls-1" d="M103.64,205.91l5.04-4.68c1.34-1.26,2.04-2.04,2.04-3.16,0-1.26-.94-2.04-2.24-2.04s-2.2.84-2.2,2.2h-2.8c0-2.76,2.06-4.54,5.04-4.52,3.02-.02,5.04,1.7,5.04,4.16,0,1.62-.78,2.94-3.72,5.56l-2.12,2.08v.12h6.04v2.4h-10.12v-2.12Z"/>
      <path class="cls-1" d="M114.84,200.95c0-4.62,2.16-7.26,5.68-7.24,3.52-.02,5.68,2.64,5.68,7.24s-2.14,7.28-5.68,7.28-5.68-2.64-5.68-7.28ZM120.52,205.79c1.64,0,2.7-1.56,2.68-4.84,0-3.22-1.04-4.84-2.68-4.84s-2.68,1.62-2.68,4.84c-.02,3.28,1.04,4.84,2.68,4.84Z"/>
      <path class="cls-1" d="M127.44,205.91l5.04-4.68c1.34-1.26,2.04-2.04,2.04-3.16,0-1.26-.94-2.04-2.24-2.04s-2.2.84-2.2,2.2h-2.8c0-2.76,2.06-4.54,5.04-4.52,3.02-.02,5.04,1.7,5.04,4.16,0,1.62-.78,2.94-3.72,5.56l-2.12,2.08v.12h6.04v2.4h-10.12v-2.12Z"/>
      <path class="cls-1" d="M144.92,208.03h-2.92v-11.36h-.12l-3.24,2.04v-2.6l3.52-2.24h2.76v14.16Z"/>
      <path class="cls-1" d="M147.8,193.18h2.48v7.6c2.16-.04,4.2-.16,6.4-.56l.24,2c-2.64.5-5.04.6-7.68.6h-1.44v-9.64ZM149.96,203.95h2.52v3.56h9.72v2h-12.24v-5.56ZM161.8,205.15h-2.48v-5.84h-4.44v-1.92h4.44v-1.4h-4.44v-1.96h4.44v-1.96h2.48v13.08Z"/>
      <path class="cls-1" d="M167.08,205.59h16.28v2.04h-16.28v-2.04ZM182.76,200.47l-1.08,2.08c-3.1-.62-5.4-2.36-6.56-4.64-1.16,2.26-3.48,4-6.56,4.64l-1.08-2.08c3.98-.7,6.28-3.5,6.32-6.08v-1.28h2.64v1.28c0,2.62,2.3,5.4,6.32,6.08Z"/>
      <path class="cls-1" d="M192.68,205.47h-8.56v-11.72h8.56v11.72ZM190.2,203.51v-7.84h-3.6v7.84h3.6ZM195.08,192.02h2.52v6.72h2.6v2.08h-2.6v9h-2.52v-17.8Z"/>
      <path class="cls-1" d="M200.04,205.75h16.28v2h-16.28v-2ZM214.56,203.19h-12.6v-9.84h12.44v2.04h-9.88v1.88h9.48v1.96h-9.48v2h10.04v1.96Z"/>
      <path class="cls-1" d="M223.28,195.43h-5.6v-2.04h8.32c0,4.76-3.02,8.28-8.24,9.92l-1-2c3.68-1.14,6.04-3.28,6.52-5.88ZM219.8,203.75h2.52v3.76h9.64v2h-12.16v-5.76ZM231.52,205.07h-2.48v-5.8h-3.2v-2.04h3.2v-5.16h2.48v13Z"/>
      <path class="cls-1" d="M237.16,193.9v-1.28h2.52v1.28c-.02,2.14,1.22,4.2,4.04,5.04l-1.32,1.92c-1.88-.62-3.2-1.8-3.98-3.34-.78,1.72-2.18,3.06-4.26,3.7l-1.28-1.96c2.94-.88,4.26-3.04,4.28-5.36ZM236.16,201.83h11.84v4.76h-9.36v1.08h9.84v1.96h-12.28v-4.88h9.32v-1h-9.36v-1.92ZM248,201.11h-2.48v-4.44h-3.36v-1.96h3.36v-2.68h2.48v9.08Z"/>
      <path class="cls-1" d="M250,194.1h6.64v2h-4.16v7.6c1.72-.02,3.24-.12,4.96-.44l.2,2.04c-2.18.42-4.06.48-6.4.48h-1.24v-11.68ZM264.84,209.83h-2.36v-8.92h-1.68v8.04h-2.32v-16.6h2.32v6.56h1.68v-6.88h2.36v17.8Z"/>
      <path class="cls-1" d="M276.52,199.95l-1.32,1.92c-1.9-.62-3.22-1.82-3.98-3.38-.76,1.78-2.14,3.2-4.18,3.9l-1.32-1.96c2.94-1,4.22-3.38,4.24-5.84v-1.6h2.48v1.84c0,2.18,1.26,4.24,4.08,5.12ZM274.24,202.95c3.68,0,6,1.28,6,3.44s-2.32,3.44-6,3.44-6.1-1.26-6.08-3.44c-.02-2.16,2.34-3.44,6.08-3.44ZM274.24,207.87c2.3,0,3.54-.48,3.52-1.48.02-.96-1.22-1.48-3.52-1.48s-3.6.52-3.6,1.48,1.28,1.48,3.6,1.48ZM277.56,192.02h2.52v4.16h2.4v2.08h-2.4v4.32h-2.52v-10.56Z"/>
      <path class="cls-1" d="M286.24,201.71h16.24v2.04h-6.92v6.08h-2.48v-6.08h-6.84v-2.04ZM301.88,198.35l-.96,2.04c-3.12-.46-5.4-1.9-6.54-3.84-1.16,1.94-3.44,3.38-6.54,3.84l-.96-2.04c4.04-.5,6.18-2.82,6.16-4.92v-.84h2.64v.84c0,2.1,2.14,4.42,6.2,4.92Z"/>
      <path class="cls-1" d="M313.28,199.95l-1.32,1.92c-1.9-.62-3.22-1.82-3.98-3.38-.76,1.78-2.14,3.2-4.18,3.9l-1.32-1.96c2.94-1,4.22-3.38,4.24-5.84v-1.6h2.48v1.84c0,2.18,1.26,4.24,4.08,5.12ZM311,202.95c3.68,0,6,1.28,6,3.44s-2.32,3.44-6,3.44-6.1-1.26-6.08-3.44c-.02-2.16,2.34-3.44,6.08-3.44ZM311,207.87c2.3,0,3.54-.48,3.52-1.48.02-.96-1.22-1.48-3.52-1.48s-3.6.52-3.6,1.48,1.28,1.48,3.6,1.48ZM314.32,192.02h2.52v4.16h2.4v2.08h-2.4v4.32h-2.52v-10.56Z"/>
      <path class="cls-1" d="M319.2,205.63h16.28v2.04h-16.28v-2.04ZM334,198.07c0,3.1-2.94,5.12-6.68,5.12s-6.68-2.02-6.68-5.12,2.92-5.1,6.68-5.12c3.74.02,6.68,2.04,6.68,5.12ZM327.32,201.15c2.44,0,4.22-1.14,4.24-3.08-.02-1.9-1.8-3.1-4.24-3.08-2.48-.02-4.28,1.18-4.28,3.08s1.8,3.08,4.28,3.08Z"/>
      <path class="cls-1" d="M351.96,207.83h-16.28v-2.04h6.88v-2.68h-5v-5.96h10.04v-1.96h-10.08v-2h12.56v5.92h-10.04v2h10.44v2h-5.48v2.68h6.96v2.04Z"/>
      <path class="cls-1" d="M355.96,205.47h16.24v2.04h-16.24v-2.04ZM370.2,195.83c-.02,2.44-.02,4.84-.64,8.52l-2.52-.2c.66-3.42.66-5.96.68-8.32v-.12h-10.08v-2.04h12.56v2.16Z"/>
      <path class="cls-1" d="M387.04,199.95l-1.32,1.92c-1.92-.66-3.22-1.88-3.96-3.48-.78,1.86-2.22,3.32-4.36,4.04l-1.32-2c3.06-.98,4.36-3.36,4.36-5.84v-1.6h2.52v1.48c0,2.38,1.22,4.58,4.08,5.48ZM385.16,202.91c3.8.02,6.12,1.3,6.12,3.48s-2.32,3.44-6.12,3.44-6.12-1.24-6.12-3.44,2.32-3.46,6.12-3.48ZM385.16,207.87c2.36.02,3.64-.5,3.64-1.48s-1.28-1.52-3.64-1.52-3.64.5-3.64,1.52,1.28,1.5,3.64,1.48ZM385.4,195.31h3.36v-3.28h2.48v10.44h-2.48v-5.12h-3.36v-2.04Z"/>
      <path class="cls-1" d="M395.84,204.17v-5.26h2.44v5.18c1.74-.08,3.52-.2,5.16-.42l.16,1.88c-3.66.6-7.68.66-10.8.64l-.24-1.96c1-.02,2.12-.02,3.28-.06ZM402.72,195.26c-.02,1.66-.02,3.84-.48,6.8l-2.44-.2c.4-2.56.44-4.48.44-6.04h-6.72v-2h9.2v1.44ZM404.28,192.02h2.52v7.16h2.44v2.08h-2.44v8.56h-2.52v-17.8Z"/>
      <path class="cls-1" d="M425.44,201.87h-16.24v-1.84h16.24v1.84ZM411.04,202.75h12.48v4.2h-9.96v1h10.48v1.72h-12.96v-4.28h9.96v-.92h-10v-1.72ZM411.2,194.94h9.8v-.88h-9.8v-1.68h12.28v4.16h-9.8v.96h10.12v1.68h-12.6v-4.24Z"/>
      <path class="cls-1" d="M434.64,193.18c2.72,0,4.84,1.88,4.84,4.48s-2.12,4.52-4.84,4.52-4.88-1.86-4.88-4.52,2.14-4.48,4.88-4.48ZM434.64,200.03c1.34-.02,2.38-.86,2.36-2.36.02-1.44-1.02-2.3-2.36-2.32-1.4.02-2.46.88-2.44,2.32-.02,1.5,1.04,2.34,2.44,2.36ZM432.44,203.55h2.52v3.96h9.88v2h-12.4v-5.96ZM444.36,204.83h-2.48v-12.76h2.48v12.76Z"/>
      <path class="cls-1" d="M450.16,195.1h-3.6v-2h9.64v2h-3.52c.04,2.06,1.32,4.16,4.08,5.08l-1.24,1.96c-1.94-.64-3.3-1.92-4.08-3.52-.78,1.82-2.18,3.26-4.28,4l-1.32-2c2.92-.96,4.26-3.28,4.32-5.52ZM454.88,202.99c3.8.02,6.12,1.28,6.12,3.44s-2.32,3.42-6.12,3.44c-3.8-.02-6.12-1.28-6.12-3.44s2.32-3.42,6.12-3.44ZM454.88,207.95c2.36,0,3.64-.5,3.64-1.52s-1.28-1.54-3.64-1.52c-2.36-.02-3.64.5-3.64,1.52s1.28,1.52,3.64,1.52ZM460.96,202.59h-2.48v-4.2h-2.8v-2h2.8v-4.36h2.48v10.56Z"/>
      <path class="cls-1" d="M462.96,193.1h2.48v2.24h3.64v-2.24h2.52v8.44h-8.64v-8.44ZM464.92,203.23h11.72v1.96h-9.24v2.44h9.56v1.96h-12.04v-6.36ZM469.08,199.59v-2.32h-3.64v2.32h3.64ZM476.56,196.11h2.4v2.04h-2.4v4.28h-2.52v-10.4h2.52v4.08Z"/>
      <path class="cls-1" d="M488.76,197.27c0,2.54-2.08,4.32-4.84,4.32s-4.88-1.78-4.88-4.32,2.1-4.28,4.88-4.28,4.84,1.76,4.84,4.28ZM482.76,203.39v-.64h2.4v.64c0,1.46.6,2.96,2.04,3.96,1.46-1.06,2.08-2.64,2.08-3.96v-.64h2.44v.64c.02,1.9,1,3.62,3.36,4.4l-1.24,1.84c-1.68-.6-2.76-1.72-3.36-3.1-.58,1.4-1.62,2.62-3.24,3.26-1.64-.62-2.68-1.8-3.26-3.2-.62,1.36-1.7,2.44-3.3,3.04l-1.24-1.84c2.3-.82,3.32-2.62,3.32-4.4ZM483.92,199.51c1.38-.02,2.42-.82,2.44-2.24-.02-1.34-1.06-2.2-2.44-2.2s-2.44.86-2.44,2.2c0,1.42,1.06,2.22,2.44,2.24ZM490.52,192.02h2.52v3.88h2.4v2h-2.4v4.08h-2.52v-9.96Z"/>
      <path class="cls-1" d="M495.4,199.83h16.24v2h-16.24v-2ZM502.24,192.82v-.6h2.56v.6c0,1.78,2.04,3.8,6,4.24l-.88,1.96c-3.06-.38-5.28-1.66-6.4-3.38-1.16,1.72-3.38,3-6.4,3.38l-.92-1.96c3.98-.48,6.02-2.42,6.04-4.24ZM499.76,204.23h7.32v-1.52h2.48v6.92h-12.24v-6.92h2.44v1.52ZM507.08,207.67v-1.56h-7.32v1.56h7.32Z"/>
      <path class="cls-1" d="M512.84,193.74h2.48v9.56c2.4-.04,4.98-.26,7.6-.76l.28,2.04c-3.1.66-6.04.86-8.8.84h-1.56v-11.68ZM526.84,209.83h-2.48v-17.8h2.48v17.8Z"/>
      <path class="cls-1" d="M529.08,193.7h8.32v2h-5.84v7.8c2.58-.04,4.7-.16,7.04-.56l.28,2.08c-2.74.46-5.16.54-8.32.52h-1.48v-11.84ZM542.4,198.67h2.6v2h-2.6v9.2h-2.52v-17.84h2.52v6.64Z"/>
      <path class="cls-1" d="M545.52,206.55c-.04-.88.72-1.62,1.64-1.6.86-.02,1.62.72,1.64,1.6-.02.92-.78,1.66-1.64,1.64-.92.02-1.68-.72-1.64-1.64Z"/>
    </g>
    <g>
      <path class="cls-1" d="M190.81,8.31c-2.2-.02-3.66,1.68-3.64,4.64-.02,3.06,1.46,4.66,3.64,4.68,1.6-.02,2.8-.9,3.08-2.4h2.96c-.32,2.62-2.5,5-6.12,5s-6.56-2.66-6.56-7.28,2.84-7.26,6.56-7.24c3.28-.02,5.74,1.86,6.12,5.12h-2.96c-.22-1.58-1.44-2.54-3.08-2.52Z"/>
      <path class="cls-1" d="M198.41,14.79c.02-3.28,2.04-5.5,5.16-5.52,2.76.02,4.96,1.78,4.96,5.4v.8h-7.24c0,1.6.94,2.6,2.44,2.6.98,0,1.68-.44,1.96-1.04h2.76c-.42,1.94-2.16,3.2-4.76,3.2-3.28,0-5.26-2.1-5.28-5.44ZM205.81,13.67c-.02-1.3-.92-2.22-2.2-2.24-1.36.02-2.28,1.02-2.32,2.24h4.52Z"/>
      <path class="cls-1" d="M210.33,9.43h2.8v1.84h.12c.38-1.32,1.36-2,2.56-2,.3,0,.66.04.92.08v2.6c-.26-.1-.82-.16-1.24-.16-1.3,0-2.26.9-2.28,2.2v6.04h-2.88v-10.6Z"/>
      <path class="cls-1" d="M224.27,11.59h-2v5.2c0,.82.42,1.04,1,1.04.3.02.8-.02,1.16-.04v2.28c-.32.04-.84.1-1.52.12-2.12-.02-3.54-.96-3.52-3.04v-5.56h-1.48v-2.16h1.48v-2.56h2.88v2.56h2v2.16Z"/>
      <path class="cls-1" d="M227.51,5.1c.86-.02,1.56.64,1.56,1.44s-.7,1.48-1.56,1.48-1.58-.66-1.6-1.48c.02-.8.72-1.46,1.6-1.44ZM226.07,9.43h2.88v10.6h-2.88v-10.6Z"/>
      <path class="cls-1" d="M236.91,11.59h-2.12v8.44h-2.88v-8.44h-1.52v-2.16h1.52v-.8c0-2.24,1.34-3.4,3.48-3.4.64,0,1.2.06,1.72.16v2.2c-.42-.04-.74-.06-.88-.04-.94-.02-1.44.34-1.44,1.24v.64h2.12v2.16Z"/>
      <path class="cls-1" d="M240.03,5.1c.86-.02,1.56.64,1.56,1.44s-.7,1.48-1.56,1.48-1.58-.66-1.6-1.48c.02-.8.72-1.46,1.6-1.44ZM238.59,9.43h2.88v10.6h-2.88v-10.6Z"/>
      <path class="cls-1" d="M243.31,14.75c.02-3.24,2-5.46,5.2-5.48,2.76.02,4.6,1.62,4.72,4.04h-2.72c-.16-1.04-.86-1.76-1.96-1.76-1.38,0-2.3,1.16-2.28,3.16-.02,2.06.9,3.24,2.28,3.24,1.04,0,1.78-.64,1.96-1.76h2.72c-.12,2.4-1.9,4.04-4.68,4.04-3.28,0-5.22-2.24-5.24-5.48Z"/>
      <path class="cls-1" d="M258.47,13.79l2.64-.12v-.84c0-.92-.62-1.42-1.68-1.44-1,.02-1.62.46-1.76,1.2h-2.76c.16-1.86,1.78-3.3,4.6-3.32,2.3.02,4.48,1.06,4.48,3.6v7.16h-2.72v-1.48h-.12c-.5,1-1.5,1.68-3.08,1.68-2.02,0-3.52-1.06-3.52-3.16,0-2.38,1.9-3.14,3.92-3.28ZM258.87,18.23c1.34,0,2.26-.88,2.24-2v-.76c-.44.02-1.68.08-2.16.12-1,.1-1.64.58-1.64,1.4s.66,1.24,1.56,1.24Z"/>
      <path class="cls-1" d="M271.79,11.59h-2v5.2c0,.82.42,1.04,1,1.04.3.02.8-.02,1.16-.04v2.28c-.32.04-.84.1-1.52.12-2.12-.02-3.54-.96-3.52-3.04v-5.56h-1.48v-2.16h1.48v-2.56h2.88v2.56h2v2.16Z"/>
      <path class="cls-1" d="M275.03,5.1c.86-.02,1.56.64,1.56,1.44s-.7,1.48-1.56,1.48-1.58-.66-1.6-1.48c.02-.8.72-1.46,1.6-1.44ZM273.59,9.43h2.88v10.6h-2.88v-10.6Z"/>
      <path class="cls-1" d="M278.31,14.75c.02-3.26,2.02-5.46,5.24-5.48,3.2.02,5.18,2.22,5.2,5.48-.02,3.28-2,5.48-5.2,5.48s-5.22-2.2-5.24-5.48ZM283.55,17.99c1.48,0,2.26-1.38,2.24-3.24.02-1.86-.76-3.26-2.24-3.24-1.52-.02-2.3,1.38-2.28,3.24-.02,1.86.76,3.24,2.28,3.24Z"/>
      <path class="cls-1" d="M293.43,20.03h-2.88v-10.6h2.76v1.84h.12c.48-1.22,1.62-1.98,3.2-2,2.2.02,3.66,1.52,3.64,4v6.76h-2.88v-6.24c0-1.32-.7-2.1-1.92-2.12-1.2.02-2.02.82-2.04,2.2v6.16Z"/>
      <path class="cls-1" d="M306.83,11.35c-.94,0-1.64.44-1.64,1.08,0,.48.38.86,1.36,1.08l1.92.36c2.04.44,3.04,1.36,3.04,2.88,0,2.08-1.86,3.48-4.68,3.48s-4.56-1.28-4.8-3.36h2.92c.14.84.8,1.28,1.88,1.28s1.74-.42,1.76-1.12c-.02-.54-.46-.88-1.44-1.08l-1.76-.36c-2.04-.38-3.08-1.44-3.08-3,0-2.04,1.76-3.3,4.48-3.32,2.7.02,4.34,1.28,4.48,3.32h-2.68c-.14-.76-.78-1.24-1.76-1.24Z"/>
      <path class="cls-1" d="M317.47,16.27c0-1.62,1.04-2.62,2.6-3.7-.76-.96-1.36-2-1.36-3.26,0-2.04,1.52-3.6,3.84-3.6s3.66,1.52,3.68,3.32c-.02,1.32-.7,2.4-1.88,3.24l-.86.62,2.38,2.72c.38-.7.6-1.52.6-2.46h2.4c0,1.92-.5,3.4-1.28,4.44l2.12,2.44h-3.04l-.86-.96c-1.02.82-2.36,1.16-3.62,1.16-2.92,0-4.72-1.72-4.72-3.96ZM322.35,17.91c.64,0,1.32-.2,1.92-.58l-2.72-3.04-.08.06c-.82.6-1.18,1.22-1.2,1.76.02,1.02.82,1.8,2.08,1.8ZM322.09,11.23l.74-.48c.72-.46,1.06-.96,1.04-1.56.02-.58-.46-1.16-1.32-1.16-.8,0-1.36.62-1.36,1.32,0,.6.38,1.2.9,1.88Z"/>
      <path class="cls-1" d="M334.71,20.03l4.88-14.16h3.8l4.88,14.16h-3.16l-1.06-3.24h-5.12l-1.06,3.24h-3.16ZM343.31,14.47l-1.76-5.4h-.12l-1.76,5.4h3.64Z"/>
      <path class="cls-1" d="M348.87,14.75c.02-3.24,2-5.46,5.2-5.48,2.76.02,4.6,1.62,4.72,4.04h-2.72c-.16-1.04-.86-1.76-1.96-1.76-1.38,0-2.3,1.16-2.28,3.16-.02,2.06.9,3.24,2.28,3.24,1.04,0,1.78-.64,1.96-1.76h2.72c-.12,2.4-1.9,4.04-4.68,4.04-3.28,0-5.22-2.24-5.24-5.48Z"/>
      <path class="cls-1" d="M363.47,20.03h-2.88V5.86h2.8v5.4h.16c.46-1.22,1.54-1.98,3.16-2,2.2.02,3.66,1.5,3.64,4v6.76h-2.88v-6.24c.02-1.32-.7-2.1-1.92-2.12-1.2.02-2.06.82-2.08,2.2v6.16Z"/>
      <path class="cls-1" d="M374.03,5.1c.86-.02,1.56.64,1.56,1.44s-.7,1.48-1.56,1.48-1.58-.66-1.6-1.48c.02-.8.72-1.46,1.6-1.44ZM372.59,9.43h2.88v10.6h-2.88v-10.6Z"/>
      <path class="cls-1" d="M377.31,14.79c.02-3.28,2.04-5.5,5.16-5.52,2.76.02,4.96,1.78,4.96,5.4v.8h-7.24c0,1.6.94,2.6,2.44,2.6.98,0,1.68-.44,1.96-1.04h2.76c-.42,1.94-2.16,3.2-4.76,3.2-3.28,0-5.26-2.1-5.28-5.44ZM384.71,13.67c-.02-1.3-.92-2.22-2.2-2.24-1.36.02-2.28,1.02-2.32,2.24h4.52Z"/>
      <path class="cls-1" d="M395.05,20.03h-3.24l-3.72-10.6h3.08l2.2,7.6h.12l2.24-7.6h3.04l-3.72,10.6Z"/>
      <path class="cls-1" d="M399.37,14.79c.02-3.28,2.04-5.5,5.16-5.52,2.76.02,4.96,1.78,4.96,5.4v.8h-7.24c0,1.6.94,2.6,2.44,2.6.98,0,1.68-.44,1.96-1.04h2.76c-.42,1.94-2.16,3.2-4.76,3.2-3.28,0-5.26-2.1-5.28-5.44ZM406.77,13.67c-.02-1.3-.92-2.22-2.2-2.24-1.36.02-2.28,1.02-2.32,2.24h4.52Z"/>
      <path class="cls-1" d="M411.29,9.43h2.76v1.84h.12c.44-1.22,1.52-1.98,2.96-2,1.46.02,2.54.78,2.88,2h.12c.42-1.2,1.64-1.98,3.2-2,1.96.02,3.32,1.32,3.32,3.64v7.12h-2.88v-6.56c0-1.22-.72-1.8-1.68-1.8-1.08,0-1.72.76-1.72,1.88v6.48h-2.8v-6.64c0-1.04-.66-1.72-1.64-1.72s-1.74.8-1.76,2v6.36h-2.88v-10.6Z"/>
      <path class="cls-1" d="M428.45,14.79c.02-3.28,2.04-5.5,5.16-5.52,2.76.02,4.96,1.78,4.96,5.4v.8h-7.24c0,1.6.94,2.6,2.44,2.6.98,0,1.68-.44,1.96-1.04h2.76c-.42,1.94-2.16,3.2-4.76,3.2-3.28,0-5.26-2.1-5.28-5.44ZM435.85,13.67c-.02-1.3-.92-2.22-2.2-2.24-1.36.02-2.28,1.02-2.32,2.24h4.52Z"/>
      <path class="cls-1" d="M443.25,20.03h-2.88v-10.6h2.76v1.84h.12c.48-1.22,1.62-1.98,3.2-2,2.2.02,3.66,1.52,3.64,4v6.76h-2.88v-6.24c0-1.32-.7-2.1-1.92-2.12-1.2.02-2.02.82-2.04,2.2v6.16Z"/>
      <path class="cls-1" d="M457.93,11.59h-2v5.2c0,.82.42,1.04,1,1.04.3.02.8-.02,1.16-.04v2.28c-.32.04-.84.1-1.52.12-2.12-.02-3.54-.96-3.52-3.04v-5.56h-1.48v-2.16h1.48v-2.56h2.88v2.56h2v2.16Z"/>
      <path class="cls-1" d="M463.91,11.35c-.94,0-1.64.44-1.64,1.08,0,.48.38.86,1.36,1.08l1.92.36c2.04.44,3.04,1.36,3.04,2.88,0,2.08-1.86,3.48-4.68,3.48s-4.56-1.28-4.8-3.36h2.92c.14.84.8,1.28,1.88,1.28s1.74-.42,1.76-1.12c-.02-.54-.46-.88-1.44-1.08l-1.76-.36c-2.04-.38-3.08-1.44-3.08-3,0-2.04,1.76-3.3,4.48-3.32,2.7.02,4.34,1.28,4.48,3.32h-2.68c-.14-.76-.78-1.24-1.76-1.24Z"/>
    </g>
  </g>
</svg>