<?xml version="1.0" encoding="UTF-8"?>
<svg id="Layer_2" data-name="Layer 2" xmlns="http://www.w3.org/2000/svg" viewBox="0 0 304.02 71.52">
  <defs>
    <style>
      .cls-1 {
        fill: #f1f4fa;
      }

      .cls-2 {
        fill: #8babd9;
      }
    </style>
  </defs>
  <g id="Layer_1-2" data-name="Layer 1">
    <g>
      <path class="cls-1" d="M63.39,49.27v1.02c0,11.58-10.46,21.13-23.26,21.13H8.85c-.91,0-1.64-.74-1.64-1.64v-10.94c0-.91.74-1.64,1.64-1.64h31.27c4.37,0,8.03-3.15,8.03-6.91v-1.02c0-3.86-3.66-6.91-8.03-6.91h-16.86C10.46,42.36,0,32.81,0,21.23S10.46,0,23.26,0h32.14c.91,0,1.64.73,1.64,1.64v10.94c0,.91-.73,1.64-1.64,1.64H23.26c-4.47,0-8.02,3.15-8.02,7.01s3.56,6.91,8.02,6.91h16.86c12.8,0,23.26,9.55,23.26,21.13"/>
      <path class="cls-1" d="M124.86,71.42h-12.4c-.72,0-1.36-.47-1.57-1.16l-4.52-14.79-6.4-21.03h-.1l-1.52-5.08c-.46-1.55-2.64-1.57-3.14-.03l-2.35,7.35-7.21,22.96h.1l-3.3,10.63c-.21.69-.85,1.15-1.57,1.15h-12.5c-1.11,0-1.9-1.08-1.57-2.14l8.57-27.02L88.33,1.65c.22-.68.85-1.14,1.56-1.14h13.85c.72,0,1.35.47,1.57,1.15l21.12,67.63c.33,1.06-.46,2.13-1.57,2.13"/>
      <path class="cls-1" d="M182.33,2.15v10.74c0,.91-.73,1.64-1.64,1.64h-29.63c-.91,0-1.64.73-1.64,1.64v53.61c0,.91-.74,1.64-1.64,1.64h-11.96c-.91,0-1.64-.73-1.64-1.64V2.15c0-.91.73-1.64,1.64-1.64h44.87c.91,0,1.64.74,1.64,1.64M162.47,42.75v-10.74c0-.91.73-1.64,1.64-1.64h13.89c.91,0,1.64.74,1.64,1.64v10.74c0,.91-.74,1.64-1.64,1.64h-13.89c-.91,0-1.64-.74-1.64-1.64"/>
      <path class="cls-1" d="M189.43,12.89V2.15c0-.91.73-1.64,1.64-1.64h44.87c.91,0,1.64.74,1.64,1.64v10.74c0,.91-.73,1.64-1.64,1.64h-44.87c-.91,0-1.64-.73-1.64-1.64M190.23,42.75v-10.74c0-.91.71-1.64,1.59-1.64h43.38c.88,0,1.59.74,1.59,1.64v10.74c0,.91-.71,1.64-1.59,1.64h-43.38c-.88,0-1.59-.74-1.59-1.64M237.58,59.14v10.74c0,.91-.73,1.64-1.64,1.64h-44.87c-.91,0-1.64-.73-1.64-1.64v-12.38h46.51c.91,0,1.64.74,1.64,1.64"/>
      <path class="cls-2" d="M304.02,24.69v22.66c0,13.31-11.78,24.18-26.21,24.18h-28.33c-.91,0-1.64-.73-1.64-1.64v-11.97h-.1v-.41h30.07c6.1,0,10.97-4.57,10.97-10.16v-22.66c0-5.59-4.88-10.16-10.97-10.16h-28.33c-.91,0-1.64-.74-1.64-1.64V2.15c0-.91.74-1.64,1.64-1.64h28.33c14.43,0,26.21,10.87,26.21,24.18"/>
    </g>
  </g>
</svg>